<svg width="366" height="248" viewBox="0 0 366 248" fill="none" xmlns="http://www.w3.org/2000/svg">
<g filter="url(#filter0_d_964_18503)">
<rect width="328" height="242" transform="translate(19 6)" fill="white"/>
<g clip-path="url(#clip0_964_18503)">
<path d="M101.589 53.5255H96.519V48.4559C96.519 47.5596 96.1629 46.6999 95.5291 46.0661C94.8953 45.4323 94.0356 45.0762 93.1393 45.0762H72.8608C71.9644 45.0762 71.1048 45.4323 70.4709 46.0661C69.8371 46.6999 69.481 47.5596 69.481 48.4559V53.5255H64.4114C63.0669 53.5255 61.7774 54.0597 60.8267 55.0104C59.8759 55.9611 59.3418 57.2506 59.3418 58.5952V82.2534C59.3418 83.1497 59.6979 84.0094 60.3317 84.6432C60.9655 85.2771 61.8252 85.6331 62.7215 85.6331H103.279C104.175 85.6331 105.035 85.2771 105.668 84.6432C106.302 84.0094 106.658 83.1497 106.658 82.2534V58.5952C106.658 57.2506 106.124 55.9611 105.173 55.0104C104.223 54.0597 102.933 53.5255 101.589 53.5255ZM72.8608 48.4559H93.1393V53.5255H72.8608V48.4559ZM103.279 82.2534H62.7215V67.0445H76.2405V75.4939H89.7595V67.0445H103.279V82.2534ZM79.6203 67.0445H86.3798V72.1141H79.6203V67.0445ZM62.7215 63.6648V58.5952C62.7215 58.147 62.8996 57.7172 63.2165 57.4002C63.5334 57.0833 63.9632 56.9053 64.4114 56.9053H101.589C102.037 56.9053 102.467 57.0833 102.784 57.4002C103.1 57.7172 103.279 58.147 103.279 58.5952V63.6648H62.7215Z" fill="#0D5C63"/>
</g>
<path d="M73.16 107.224V110.56H64.808V114.016H72.32V117.208H64.808V120.688H73.424V124H61.064V107.224H73.16ZM79.9899 116.8V124H76.3899V111.088H79.9899V112.528C81.0779 111.424 82.3019 110.872 83.6619 110.872C85.0219 110.872 86.1579 111.352 87.0699 112.312C87.9979 113.272 88.4619 114.552 88.4619 116.152V124H84.8619V116.704C84.8619 114.72 84.1339 113.728 82.6779 113.728C81.9579 113.728 81.3259 113.992 80.7819 114.52C80.2539 115.032 79.9899 115.792 79.9899 116.8ZM95.0871 124L89.9751 111.064H93.7191L96.9351 119.2L100.151 111.064H103.895L98.7831 124H95.0871ZM109.37 124H105.77V111.088H109.37V124ZM106.058 109.456C105.658 109.04 105.458 108.536 105.458 107.944C105.458 107.352 105.658 106.856 106.058 106.456C106.474 106.04 106.978 105.832 107.57 105.832C108.162 105.832 108.658 106.04 109.058 106.456C109.474 106.856 109.682 107.352 109.682 107.944C109.682 108.536 109.474 109.04 109.058 109.456C108.658 109.856 108.162 110.056 107.57 110.056C106.978 110.056 106.474 109.856 106.058 109.456ZM119.669 114.256C118.597 114.256 117.797 114.64 117.269 115.408C116.741 116.16 116.477 117.16 116.477 118.408V124H112.877V111.088H116.477V112.792C116.941 112.264 117.517 111.816 118.205 111.448C118.909 111.08 119.621 110.888 120.341 110.872L120.365 114.256H119.669ZM125.537 117.544C125.537 118.6 125.833 119.464 126.425 120.136C127.033 120.792 127.801 121.12 128.729 121.12C129.673 121.12 130.441 120.792 131.033 120.136C131.641 119.464 131.945 118.6 131.945 117.544C131.945 116.488 131.641 115.624 131.033 114.952C130.441 114.28 129.673 113.944 128.729 113.944C127.801 113.944 127.033 114.28 126.425 114.952C125.833 115.624 125.537 116.488 125.537 117.544ZM135.569 117.544C135.569 119.416 134.921 120.992 133.625 122.272C132.329 123.552 130.697 124.192 128.729 124.192C126.777 124.192 125.153 123.552 123.857 122.272C122.561 120.992 121.913 119.416 121.913 117.544C121.913 115.672 122.561 114.096 123.857 112.816C125.153 111.52 126.777 110.872 128.729 110.872C130.697 110.872 132.329 111.52 133.625 112.816C134.921 114.096 135.569 115.672 135.569 117.544ZM141.943 116.8V124H138.343V111.088H141.943V112.528C143.031 111.424 144.255 110.872 145.615 110.872C146.975 110.872 148.111 111.352 149.023 112.312C149.951 113.272 150.415 114.552 150.415 116.152V124H146.815V116.704C146.815 114.72 146.087 113.728 144.631 113.728C143.911 113.728 143.279 113.992 142.735 114.52C142.207 115.032 141.943 115.792 141.943 116.8ZM165.627 117.04V124H162.003V116.944C162.003 115.92 161.843 115.168 161.523 114.688C161.219 114.208 160.715 113.968 160.011 113.968C159.323 113.968 158.707 114.232 158.163 114.76C157.635 115.272 157.371 116.032 157.371 117.04V124H153.771V111.088H157.371V112.552C158.363 111.432 159.499 110.872 160.779 110.872C161.595 110.872 162.331 111.112 162.987 111.592C163.659 112.072 164.163 112.656 164.499 113.344C164.995 112.56 165.659 111.952 166.491 111.52C167.339 111.088 168.187 110.872 169.035 110.872C170.555 110.872 171.779 111.328 172.707 112.24C173.635 113.136 174.099 114.44 174.099 116.152V124H170.475V116.944C170.475 114.96 169.747 113.968 168.291 113.968C167.571 113.968 166.947 114.232 166.419 114.76C165.891 115.272 165.627 116.032 165.627 117.04ZM188.657 122.128C187.201 123.504 185.489 124.192 183.521 124.192C181.569 124.192 179.953 123.592 178.673 122.392C177.393 121.176 176.753 119.552 176.753 117.52C176.753 115.488 177.401 113.872 178.697 112.672C180.009 111.472 181.553 110.872 183.329 110.872C185.105 110.872 186.609 111.408 187.841 112.48C189.089 113.552 189.713 115.024 189.713 116.896V118.816H180.305C180.417 119.52 180.785 120.096 181.409 120.544C182.033 120.992 182.737 121.216 183.521 121.216C184.785 121.216 185.825 120.792 186.641 119.944L188.657 122.128ZM186.065 116.248C185.985 115.48 185.697 114.888 185.201 114.472C184.705 114.056 184.097 113.848 183.377 113.848C182.673 113.848 182.025 114.064 181.433 114.496C180.841 114.928 180.497 115.512 180.401 116.248H186.065ZM196.009 116.8V124H192.409V111.088H196.009V112.528C197.097 111.424 198.321 110.872 199.681 110.872C201.041 110.872 202.177 111.352 203.089 112.312C204.017 113.272 204.481 114.552 204.481 116.152V124H200.881V116.704C200.881 114.72 200.153 113.728 198.697 113.728C197.977 113.728 197.345 113.992 196.801 114.52C196.273 115.032 196.009 115.792 196.009 116.8ZM211.945 113.68V119.464C211.945 119.96 212.073 120.352 212.329 120.64C212.585 120.912 212.889 121.048 213.241 121.048C213.913 121.048 214.481 120.744 214.945 120.136L216.289 122.656C215.169 123.68 213.985 124.192 212.737 124.192C211.505 124.192 210.457 123.784 209.593 122.968C208.745 122.152 208.321 121.04 208.321 119.632V113.68H206.809V111.088H208.321V107.224H211.945V111.088H215.065V113.68H211.945ZM229.288 124H225.904V122.44C224.976 123.608 223.824 124.192 222.448 124.192C221.088 124.192 219.944 123.8 219.016 123.016C218.088 122.216 217.624 121.16 217.624 119.848C217.624 118.52 218.104 117.528 219.064 116.872C220.024 116.216 221.336 115.888 223 115.888H225.688V115.816C225.688 114.44 224.96 113.752 223.504 113.752C222.88 113.752 222.216 113.88 221.512 114.136C220.824 114.376 220.24 114.68 219.76 115.048L218.152 112.72C219.848 111.488 221.784 110.872 223.96 110.872C225.528 110.872 226.808 111.264 227.8 112.048C228.792 112.832 229.288 114.072 229.288 115.768V124ZM225.664 119.08V118.456H223.408C221.968 118.456 221.248 118.904 221.248 119.8C221.248 120.264 221.416 120.624 221.752 120.88C222.104 121.12 222.6 121.24 223.24 121.24C223.88 121.24 224.44 121.048 224.92 120.664C225.416 120.264 225.664 119.736 225.664 119.08ZM236.27 124H232.67V106.192H236.27V124ZM68.768 152.688C70.608 152.688 72.112 151.96 73.28 150.504L75.68 152.976C73.776 155.12 71.528 156.192 68.936 156.192C66.36 156.192 64.232 155.376 62.552 153.744C60.888 152.112 60.056 150.056 60.056 147.576C60.056 145.08 60.904 143 62.6 141.336C64.312 139.672 66.4 138.84 68.864 138.84C71.616 138.84 73.92 139.888 75.776 141.984L73.448 144.624C72.264 143.152 70.792 142.416 69.032 142.416C67.624 142.416 66.416 142.88 65.408 143.808C64.416 144.72 63.92 145.96 63.92 147.528C63.92 149.08 64.392 150.328 65.336 151.272C66.28 152.216 67.424 152.688 68.768 152.688ZM80.7465 149.544C80.7465 150.6 81.0425 151.464 81.6345 152.136C82.2425 152.792 83.0105 153.12 83.9385 153.12C84.8825 153.12 85.6505 152.792 86.2425 152.136C86.8505 151.464 87.1545 150.6 87.1545 149.544C87.1545 148.488 86.8505 147.624 86.2425 146.952C85.6505 146.28 84.8825 145.944 83.9385 145.944C83.0105 145.944 82.2425 146.28 81.6345 146.952C81.0425 147.624 80.7465 148.488 80.7465 149.544ZM90.7785 149.544C90.7785 151.416 90.1305 152.992 88.8345 154.272C87.5385 155.552 85.9065 156.192 83.9385 156.192C81.9865 156.192 80.3625 155.552 79.0665 154.272C77.7705 152.992 77.1225 151.416 77.1225 149.544C77.1225 147.672 77.7705 146.096 79.0665 144.816C80.3625 143.52 81.9865 142.872 83.9385 142.872C85.9065 142.872 87.5385 143.52 88.8345 144.816C90.1305 146.096 90.7785 147.672 90.7785 149.544ZM97.1524 148.8V156H93.5524V143.088H97.1524V144.528C98.2404 143.424 99.4644 142.872 100.824 142.872C102.184 142.872 103.32 143.352 104.232 144.312C105.16 145.272 105.624 146.552 105.624 148.152V156H102.024V148.704C102.024 146.72 101.296 145.728 99.8404 145.728C99.1204 145.728 98.4884 145.992 97.9444 146.52C97.4164 147.032 97.1524 147.792 97.1524 148.8ZM118.701 151.992C118.701 153.256 118.229 154.272 117.285 155.04C116.357 155.808 115.173 156.192 113.733 156.192C112.773 156.192 111.773 156.024 110.733 155.688C109.693 155.336 108.757 154.824 107.925 154.152L109.509 151.896C110.853 152.936 112.285 153.456 113.805 153.456C114.269 153.456 114.637 153.368 114.909 153.192C115.181 153 115.317 152.752 115.317 152.448C115.317 152.144 115.125 151.864 114.741 151.608C114.373 151.352 113.829 151.112 113.109 150.888C112.405 150.664 111.861 150.472 111.477 150.312C111.109 150.152 110.685 149.92 110.205 149.616C109.229 149.008 108.741 148.112 108.741 146.928C108.741 145.728 109.221 144.752 110.181 144C111.141 143.248 112.381 142.872 113.901 142.872C115.421 142.872 116.941 143.384 118.461 144.408L117.117 146.808C115.997 146.04 114.877 145.656 113.757 145.656C112.653 145.656 112.101 145.96 112.101 146.568C112.101 146.904 112.277 147.168 112.629 147.36C112.981 147.552 113.565 147.776 114.381 148.032C115.197 148.288 115.773 148.488 116.109 148.632C116.461 148.76 116.877 148.968 117.357 149.256C118.253 149.8 118.701 150.712 118.701 151.992ZM129.877 150.048V143.088H133.501V156H129.877V154.296C128.981 155.56 127.821 156.192 126.397 156.192C124.989 156.192 123.805 155.752 122.845 154.872C121.885 153.976 121.405 152.656 121.405 150.912V143.088H125.029V150.12C125.029 152.104 125.757 153.096 127.213 153.096C127.933 153.096 128.557 152.84 129.085 152.328C129.613 151.8 129.877 151.04 129.877 150.048ZM140.601 156H137.001V138.192H140.601V156ZM148.405 145.68V151.464C148.405 151.96 148.533 152.352 148.789 152.64C149.045 152.912 149.349 153.048 149.701 153.048C150.373 153.048 150.941 152.744 151.405 152.136L152.749 154.656C151.629 155.68 150.445 156.192 149.197 156.192C147.965 156.192 146.917 155.784 146.053 154.968C145.205 154.152 144.781 153.04 144.781 151.632V145.68H143.269V143.088H144.781V139.224H148.405V143.088H151.525V145.68H148.405ZM158.379 156H154.779V143.088H158.379V156ZM155.067 141.456C154.667 141.04 154.467 140.536 154.467 139.944C154.467 139.352 154.667 138.856 155.067 138.456C155.483 138.04 155.987 137.832 156.579 137.832C157.171 137.832 157.667 138.04 158.067 138.456C158.483 138.856 158.691 139.352 158.691 139.944C158.691 140.536 158.483 141.04 158.067 141.456C157.667 141.856 157.171 142.056 156.579 142.056C155.987 142.056 155.483 141.856 155.067 141.456ZM165.487 148.8V156H161.887V143.088H165.487V144.528C166.575 143.424 167.799 142.872 169.159 142.872C170.519 142.872 171.655 143.352 172.567 144.312C173.495 145.272 173.959 146.552 173.959 148.152V156H170.359V148.704C170.359 146.72 169.631 145.728 168.175 145.728C167.455 145.728 166.823 145.992 166.279 146.52C165.751 147.032 165.487 147.792 165.487 148.8ZM186.363 149.28C186.363 148.24 186.075 147.424 185.499 146.832C184.923 146.24 184.211 145.944 183.363 145.944C182.515 145.944 181.779 146.24 181.155 146.832C180.547 147.424 180.243 148.232 180.243 149.256C180.243 150.28 180.539 151.112 181.131 151.752C181.739 152.376 182.475 152.688 183.339 152.688C184.203 152.688 184.923 152.376 185.499 151.752C186.075 151.128 186.363 150.304 186.363 149.28ZM186.867 153.816C185.731 155.08 184.315 155.712 182.619 155.712C180.939 155.712 179.515 155.144 178.347 154.008C177.195 152.856 176.619 151.328 176.619 149.424C176.619 147.504 177.211 145.936 178.395 144.72C179.595 143.488 180.963 142.872 182.499 142.872C184.035 142.872 185.307 143.504 186.315 144.768V143.064H189.915V154.32C189.915 155.472 189.715 156.496 189.315 157.392C188.915 158.288 188.379 158.992 187.707 159.504C186.379 160.56 184.811 161.088 183.003 161.088C182.043 161.088 181.059 160.928 180.051 160.608C179.059 160.304 178.187 159.864 177.435 159.288L178.827 156.576C180.011 157.472 181.259 157.92 182.571 157.92C183.899 157.92 184.947 157.592 185.715 156.936C186.483 156.28 186.867 155.24 186.867 153.816Z" fill="#252B42"/>
<path d="M72.986 178.2L70.284 186.208L67.582 178.2H66.294L63.536 186.166L60.89 178.2H59.448L62.724 188H64.222L66.896 180.174L69.57 188H71.04L74.316 178.2H72.986ZM82.178 184.332C82.178 182.05 80.652 180.51 78.51 180.51C76.368 180.51 74.786 182.092 74.786 184.29C74.786 186.502 76.382 188.084 78.776 188.084C80.008 188.084 81.03 187.664 81.702 186.88L80.96 186.012C80.414 186.614 79.686 186.908 78.818 186.908C77.348 186.908 76.298 186.04 76.13 184.738H82.15C82.164 184.612 82.178 184.444 82.178 184.332ZM78.51 181.644C79.812 181.644 80.75 182.526 80.89 183.772H76.13C76.27 182.512 77.222 181.644 78.51 181.644ZM90.9201 178.634C91.3121 178.634 91.6761 178.774 91.9561 178.984L92.3621 177.962C91.9841 177.668 91.4241 177.528 90.8501 177.528C89.2681 177.528 88.4001 178.48 88.4001 179.922V180.58H87.1401V181.686H88.4001V188H89.7441V181.686H91.8721V180.58H89.7161V179.936C89.7161 179.082 90.1221 178.634 90.9201 178.634ZM96.4082 188.084C98.6342 188.084 100.258 186.502 100.258 184.29C100.258 182.078 98.6342 180.51 96.4082 180.51C94.1822 180.51 92.5442 182.078 92.5442 184.29C92.5442 186.502 94.1822 188.084 96.4082 188.084ZM96.4082 186.908C94.9802 186.908 93.9022 185.872 93.9022 184.29C93.9022 182.708 94.9802 181.686 96.4082 181.686C97.8362 181.686 98.9002 182.708 98.9002 184.29C98.9002 185.872 97.8362 186.908 96.4082 186.908ZM105.551 188.084C106.881 188.084 107.987 187.524 108.575 186.488L107.553 185.844C107.077 186.572 106.349 186.908 105.537 186.908C104.081 186.908 102.989 185.9 102.989 184.29C102.989 182.708 104.081 181.686 105.537 181.686C106.349 181.686 107.077 182.022 107.553 182.75L108.575 182.092C107.987 181.056 106.881 180.51 105.551 180.51C103.269 180.51 101.631 182.078 101.631 184.29C101.631 186.502 103.269 188.084 105.551 188.084ZM116.087 180.58V184.416C116.087 186.012 115.191 186.88 113.791 186.88C112.517 186.88 111.789 186.152 111.789 184.696V180.58H110.445V184.85C110.445 187.034 111.719 188.084 113.637 188.084C114.687 188.084 115.611 187.65 116.157 186.88V188H117.431V180.58H116.087ZM122.318 188.084C124.292 188.084 125.524 187.23 125.524 185.886C125.524 183.002 120.82 184.43 120.82 182.68C120.82 182.092 121.394 181.658 122.57 181.658C123.298 181.658 124.04 181.812 124.712 182.246L125.286 181.182C124.642 180.762 123.55 180.51 122.584 180.51C120.68 180.51 119.49 181.406 119.49 182.736C119.49 185.69 124.18 184.248 124.18 185.914C124.18 186.544 123.662 186.922 122.416 186.922C121.45 186.922 120.442 186.6 119.812 186.152L119.252 187.216C119.868 187.706 121.086 188.084 122.318 188.084ZM134.541 188.084C136.767 188.084 138.391 186.502 138.391 184.29C138.391 182.078 136.767 180.51 134.541 180.51C132.315 180.51 130.677 182.078 130.677 184.29C130.677 186.502 132.315 188.084 134.541 188.084ZM134.541 186.908C133.113 186.908 132.035 185.872 132.035 184.29C132.035 182.708 133.113 181.686 134.541 181.686C135.969 181.686 137.033 182.708 137.033 184.29C137.033 185.872 135.969 186.908 134.541 186.908ZM144.412 180.51C143.236 180.51 142.284 180.944 141.738 181.7V180.58H140.45V188H141.794V184.178C141.794 182.568 142.718 181.714 144.146 181.714C145.42 181.714 146.148 182.428 146.148 183.884V188H147.492V183.73C147.492 181.546 146.218 180.51 144.412 180.51ZM160.845 184.332C160.845 182.05 159.319 180.51 157.177 180.51C155.035 180.51 153.453 182.092 153.453 184.29C153.453 186.502 155.049 188.084 157.443 188.084C158.675 188.084 159.697 187.664 160.369 186.88L159.627 186.012C159.081 186.614 158.353 186.908 157.485 186.908C156.015 186.908 154.965 186.04 154.797 184.738H160.817C160.831 184.612 160.845 184.444 160.845 184.332ZM157.177 181.644C158.479 181.644 159.417 182.526 159.557 183.772H154.797C154.937 182.512 155.889 181.644 157.177 181.644ZM164.199 181.826V180.58H162.911V188H164.255V184.304C164.255 182.68 165.151 181.798 166.593 181.798C166.691 181.798 166.789 181.798 166.901 181.812V180.51C165.599 180.51 164.675 180.958 164.199 181.826ZM174.513 180.58V181.728C173.883 180.916 172.875 180.51 171.769 180.51C169.627 180.51 168.003 181.952 168.003 184.094C168.003 186.236 169.627 187.692 171.769 187.692C172.833 187.692 173.799 187.314 174.443 186.544V187.132C174.443 188.812 173.645 189.624 171.895 189.624C170.803 189.624 169.725 189.246 169.039 188.658L168.395 189.694C169.207 190.422 170.579 190.8 171.937 190.8C174.457 190.8 175.787 189.61 175.787 186.992V180.58H174.513ZM171.923 186.516C170.425 186.516 169.361 185.522 169.361 184.094C169.361 182.652 170.425 181.686 171.923 181.686C173.407 181.686 174.471 182.652 174.471 184.094C174.471 185.522 173.407 186.516 171.923 186.516ZM181.733 188.084C183.959 188.084 185.583 186.502 185.583 184.29C185.583 182.078 183.959 180.51 181.733 180.51C179.507 180.51 177.869 182.078 177.869 184.29C177.869 186.502 179.507 188.084 181.733 188.084ZM181.733 186.908C180.305 186.908 179.227 185.872 179.227 184.29C179.227 182.708 180.305 181.686 181.733 181.686C183.161 181.686 184.225 182.708 184.225 184.29C184.225 185.872 183.161 186.908 181.733 186.908ZM191.604 180.51C190.428 180.51 189.476 180.944 188.93 181.7V180.58H187.642V188H188.986V184.178C188.986 182.568 189.91 181.714 191.338 181.714C192.612 181.714 193.34 182.428 193.34 183.884V188H194.684V183.73C194.684 181.546 193.41 180.51 191.604 180.51ZM200.59 188.084C202.816 188.084 204.44 186.502 204.44 184.29C204.44 182.078 202.816 180.51 200.59 180.51C198.364 180.51 196.726 182.078 196.726 184.29C196.726 186.502 198.364 188.084 200.59 188.084ZM200.59 186.908C199.162 186.908 198.084 185.872 198.084 184.29C198.084 182.708 199.162 181.686 200.59 181.686C202.018 181.686 203.082 182.708 203.082 184.29C203.082 185.872 202.018 186.908 200.59 186.908ZM215.781 180.51C214.521 180.51 213.485 181.042 212.925 181.882C212.435 180.958 211.483 180.51 210.349 180.51C209.229 180.51 208.319 180.93 207.787 181.686V180.58H206.499V188H207.843V184.178C207.843 182.568 208.725 181.714 210.069 181.714C211.287 181.714 211.987 182.428 211.987 183.884V188H213.331V184.178C213.331 182.568 214.213 181.714 215.557 181.714C216.775 181.714 217.475 182.428 217.475 183.884V188H218.819V183.73C218.819 181.546 217.587 180.51 215.781 180.51ZM222.164 179.152C222.696 179.152 223.074 178.76 223.074 178.256C223.074 177.78 222.682 177.402 222.164 177.402C221.646 177.402 221.254 177.794 221.254 178.284C221.254 178.774 221.646 179.152 222.164 179.152ZM221.492 188H222.836V180.58H221.492V188ZM228.836 188.084C230.166 188.084 231.272 187.524 231.86 186.488L230.838 185.844C230.362 186.572 229.634 186.908 228.822 186.908C227.366 186.908 226.274 185.9 226.274 184.29C226.274 182.708 227.366 181.686 228.822 181.686C229.634 181.686 230.362 182.022 230.838 182.75L231.86 182.092C231.272 181.056 230.166 180.51 228.836 180.51C226.554 180.51 224.916 182.078 224.916 184.29C224.916 186.502 226.554 188.084 228.836 188.084ZM235.928 188.084C237.902 188.084 239.134 187.23 239.134 185.886C239.134 183.002 234.43 184.43 234.43 182.68C234.43 182.092 235.004 181.658 236.18 181.658C236.908 181.658 237.65 181.812 238.322 182.246L238.896 181.182C238.252 180.762 237.16 180.51 236.194 180.51C234.29 180.51 233.1 181.406 233.1 182.736C233.1 185.69 237.79 184.248 237.79 185.914C237.79 186.544 237.272 186.922 236.026 186.922C235.06 186.922 234.052 186.6 233.422 186.152L232.862 187.216C233.478 187.706 234.696 188.084 235.928 188.084ZM247.676 180.51C246.486 180.51 245.38 180.846 244.61 181.462L245.17 182.47C245.744 181.98 246.64 181.672 247.522 181.672C248.852 181.672 249.51 182.33 249.51 183.464V183.73H247.382C245.17 183.73 244.4 184.71 244.4 185.9C244.4 187.188 245.464 188.084 247.144 188.084C248.306 188.084 249.132 187.692 249.58 187.02V188H250.854V183.52C250.854 181.49 249.706 180.51 247.676 180.51ZM247.368 187.048C246.346 187.048 245.73 186.586 245.73 185.844C245.73 185.214 246.108 184.696 247.438 184.696H249.51V185.732C249.174 186.586 248.376 187.048 247.368 187.048ZM257.503 180.51C256.327 180.51 255.375 180.944 254.829 181.7V180.58H253.541V188H254.885V184.178C254.885 182.568 255.809 181.714 257.237 181.714C258.511 181.714 259.239 182.428 259.239 183.884V188H260.583V183.73C260.583 181.546 259.309 180.51 257.503 180.51ZM268.967 177.612V181.7C268.351 180.902 267.427 180.51 266.377 180.51C264.207 180.51 262.625 182.022 262.625 184.29C262.625 186.558 264.207 188.084 266.377 188.084C267.469 188.084 268.421 187.664 269.023 186.824V188H270.311V177.612H268.967ZM266.489 186.908C265.061 186.908 263.983 185.872 263.983 184.29C263.983 182.708 265.061 181.686 266.489 181.686C267.903 181.686 268.981 182.708 268.981 184.29C268.981 185.872 267.903 186.908 266.489 186.908ZM69.556 200.51C68.296 200.51 67.26 201.042 66.7 201.882C66.21 200.958 65.258 200.51 64.124 200.51C63.004 200.51 62.094 200.93 61.562 201.686V200.58H60.274V208H61.618V204.178C61.618 202.568 62.5 201.714 63.844 201.714C65.062 201.714 65.762 202.428 65.762 203.884V208H67.106V204.178C67.106 202.568 67.988 201.714 69.332 201.714C70.55 201.714 71.25 202.428 71.25 203.884V208H72.594V203.73C72.594 201.546 71.362 200.51 69.556 200.51ZM82.014 204.332C82.014 202.05 80.488 200.51 78.346 200.51C76.204 200.51 74.622 202.092 74.622 204.29C74.622 206.502 76.218 208.084 78.612 208.084C79.844 208.084 80.866 207.664 81.538 206.88L80.796 206.012C80.25 206.614 79.522 206.908 78.654 206.908C77.184 206.908 76.134 206.04 75.966 204.738H81.986C82 204.612 82.014 204.444 82.014 204.332ZM78.346 201.644C79.648 201.644 80.586 202.526 80.726 203.772H75.966C76.106 202.512 77.058 201.644 78.346 201.644ZM90.7863 204.332C90.7863 202.05 89.2602 200.51 87.1183 200.51C84.9762 200.51 83.3942 202.092 83.3942 204.29C83.3942 206.502 84.9902 208.084 87.3842 208.084C88.6162 208.084 89.6383 207.664 90.3102 206.88L89.5682 206.012C89.0223 206.614 88.2942 206.908 87.4262 206.908C85.9562 206.908 84.9062 206.04 84.7382 204.738H90.7582C90.7722 204.612 90.7863 204.444 90.7863 204.332ZM87.1183 201.644C88.4202 201.644 89.3582 202.526 89.4982 203.772H84.7382C84.8782 202.512 85.8302 201.644 87.1183 201.644ZM96.6045 206.6C96.3245 206.824 95.9465 206.95 95.5545 206.95C94.8125 206.95 94.3925 206.502 94.3925 205.704V201.686H96.5205V200.58H94.3925V198.956H93.0485V200.58H91.7885V201.686H93.0485V205.76C93.0485 207.258 93.9025 208.084 95.4005 208.084C96.0025 208.084 96.6185 207.916 97.0245 207.566L96.6045 206.6ZM99.5214 199.152C100.053 199.152 100.431 198.76 100.431 198.256C100.431 197.78 100.039 197.402 99.5214 197.402C99.0034 197.402 98.6114 197.794 98.6114 198.284C98.6114 198.774 99.0034 199.152 99.5214 199.152ZM98.8494 208H100.193V200.58H98.8494V208ZM106.922 200.51C105.746 200.51 104.794 200.944 104.248 201.7V200.58H102.96V208H104.304V204.178C104.304 202.568 105.228 201.714 106.656 201.714C107.93 201.714 108.658 202.428 108.658 203.884V208H110.002V203.73C110.002 201.546 108.728 200.51 106.922 200.51ZM118.554 200.58V201.728C117.924 200.916 116.916 200.51 115.81 200.51C113.668 200.51 112.044 201.952 112.044 204.094C112.044 206.236 113.668 207.692 115.81 207.692C116.874 207.692 117.84 207.314 118.484 206.544V207.132C118.484 208.812 117.686 209.624 115.936 209.624C114.844 209.624 113.766 209.246 113.08 208.658L112.436 209.694C113.248 210.422 114.62 210.8 115.978 210.8C118.498 210.8 119.828 209.61 119.828 206.992V200.58H118.554ZM115.964 206.516C114.466 206.516 113.402 205.522 113.402 204.094C113.402 202.652 114.466 201.686 115.964 201.686C117.448 201.686 118.512 202.652 118.512 204.094C118.512 205.522 117.448 206.516 115.964 206.516ZM131.806 200.58L129.244 206.516L126.654 200.58H125.254L128.53 207.986L128.292 208.504C127.928 209.358 127.522 209.652 126.878 209.652C126.374 209.652 125.912 209.456 125.548 209.106L124.974 210.114C125.436 210.562 126.164 210.8 126.878 210.8C128.012 210.8 128.866 210.31 129.524 208.742L133.122 200.58H131.806ZM137.549 208.084C139.775 208.084 141.399 206.502 141.399 204.29C141.399 202.078 139.775 200.51 137.549 200.51C135.323 200.51 133.685 202.078 133.685 204.29C133.685 206.502 135.323 208.084 137.549 208.084ZM137.549 206.908C136.121 206.908 135.043 205.872 135.043 204.29C135.043 202.708 136.121 201.686 137.549 201.686C138.977 201.686 140.041 202.708 140.041 204.29C140.041 205.872 138.977 206.908 137.549 206.908ZM149.03 200.58V204.416C149.03 206.012 148.134 206.88 146.734 206.88C145.46 206.88 144.732 206.152 144.732 204.696V200.58H143.388V204.85C143.388 207.034 144.662 208.084 146.58 208.084C147.63 208.084 148.554 207.65 149.1 206.88V208H150.374V200.58H149.03ZM167.116 200.58L164.904 206.516L162.706 200.58H161.572L159.332 206.488L157.176 200.58H155.902L158.66 208H159.948L162.118 202.372L164.26 208H165.548L168.32 200.58H167.116ZM173.846 200.51C172.712 200.51 171.788 200.916 171.228 201.63V197.612H169.884V208H171.228V204.178C171.228 202.568 172.152 201.714 173.58 201.714C174.854 201.714 175.582 202.428 175.582 203.884V208H176.926V203.73C176.926 201.546 175.652 200.51 173.846 200.51ZM186.36 204.332C186.36 202.05 184.834 200.51 182.692 200.51C180.55 200.51 178.968 202.092 178.968 204.29C178.968 206.502 180.564 208.084 182.958 208.084C184.19 208.084 185.212 207.664 185.884 206.88L185.142 206.012C184.596 206.614 183.868 206.908 183 206.908C181.53 206.908 180.48 206.04 180.312 204.738H186.332C186.346 204.612 186.36 204.444 186.36 204.332ZM182.692 201.644C183.994 201.644 184.932 202.526 185.072 203.772H180.312C180.452 202.512 181.404 201.644 182.692 201.644ZM189.714 201.826V200.58H188.426V208H189.77V204.304C189.77 202.68 190.666 201.798 192.108 201.798C192.206 201.798 192.304 201.798 192.416 201.812V200.51C191.114 200.51 190.19 200.958 189.714 201.826ZM200.91 204.332C200.91 202.05 199.384 200.51 197.242 200.51C195.1 200.51 193.518 202.092 193.518 204.29C193.518 206.502 195.114 208.084 197.508 208.084C198.74 208.084 199.762 207.664 200.434 206.88L199.692 206.012C199.146 206.614 198.418 206.908 197.55 206.908C196.08 206.908 195.03 206.04 194.862 204.738H200.882C200.896 204.612 200.91 204.444 200.91 204.332ZM197.242 201.644C198.544 201.644 199.482 202.526 199.622 203.772H194.862C195.002 202.512 195.954 201.644 197.242 201.644ZM212.187 200.58L209.625 206.516L207.035 200.58H205.635L208.911 207.986L208.673 208.504C208.309 209.358 207.903 209.652 207.259 209.652C206.755 209.652 206.293 209.456 205.929 209.106L205.355 210.114C205.817 210.562 206.545 210.8 207.259 210.8C208.393 210.8 209.247 210.31 209.905 208.742L213.503 200.58H212.187ZM217.93 208.084C220.156 208.084 221.78 206.502 221.78 204.29C221.78 202.078 220.156 200.51 217.93 200.51C215.704 200.51 214.066 202.078 214.066 204.29C214.066 206.502 215.704 208.084 217.93 208.084ZM217.93 206.908C216.502 206.908 215.424 205.872 215.424 204.29C215.424 202.708 216.502 201.686 217.93 201.686C219.358 201.686 220.422 202.708 220.422 204.29C220.422 205.872 219.358 206.908 217.93 206.908ZM229.41 200.58V204.416C229.41 206.012 228.514 206.88 227.114 206.88C225.84 206.88 225.112 206.152 225.112 204.696V200.58H223.768V204.85C223.768 207.034 225.042 208.084 226.96 208.084C228.01 208.084 228.934 207.65 229.48 206.88V208H230.754V200.58H229.41ZM247.497 200.58L245.285 206.516L243.087 200.58H241.953L239.713 206.488L237.557 200.58H236.283L239.041 208H240.329L242.499 202.372L244.641 208H245.929L248.701 200.58H247.497ZM253.238 208.084C255.464 208.084 257.088 206.502 257.088 204.29C257.088 202.078 255.464 200.51 253.238 200.51C251.012 200.51 249.374 202.078 249.374 204.29C249.374 206.502 251.012 208.084 253.238 208.084ZM253.238 206.908C251.81 206.908 250.732 205.872 250.732 204.29C250.732 202.708 251.81 201.686 253.238 201.686C254.666 201.686 255.73 202.708 255.73 204.29C255.73 205.872 254.666 206.908 253.238 206.908ZM260.434 201.826V200.58H259.146V208H260.49V204.304C260.49 202.68 261.386 201.798 262.828 201.798C262.926 201.798 263.024 201.798 263.136 201.812V200.51C261.834 200.51 260.91 200.958 260.434 201.826ZM270.663 208H272.315L268.885 203.646L272.007 200.58H270.383L266.337 204.276V197.612H264.993V208H266.337V205.97L267.877 204.542L270.663 208ZM274.278 208.084C274.782 208.084 275.202 207.678 275.202 207.118C275.202 206.558 274.782 206.166 274.278 206.166C273.76 206.166 273.326 206.558 273.326 207.118C273.326 207.678 273.76 208.084 274.278 208.084Z" fill="#737373"/>
</g>
<defs>
<filter id="filter0_d_964_18503" x="0" y="0" width="366" height="280" filterUnits="userSpaceOnUse" color-interpolation-filters="sRGB">
<feFlood flood-opacity="0" result="BackgroundImageFix"/>
<feColorMatrix in="SourceAlpha" type="matrix" values="0 0 0 0 0 0 0 0 0 0 0 0 0 0 0 0 0 0 127 0" result="hardAlpha"/>
<feOffset dy="13"/>
<feGaussianBlur stdDeviation="9.5"/>
<feColorMatrix type="matrix" values="0 0 0 0 0 0 0 0 0 0 0 0 0 0 0 0 0 0 0.07 0"/>
<feBlend mode="normal" in2="BackgroundImageFix" result="effect1_dropShadow_964_18503"/>
<feBlend mode="normal" in="SourceGraphic" in2="effect1_dropShadow_964_18503" result="shape"/>
</filter>
<clipPath id="clip0_964_18503">
<rect width="48" height="40.7089" fill="white" transform="translate(59 45)"/>
</clipPath>
</defs>
</svg>
