<svg width="366" height="248" viewBox="0 0 366 248" fill="none" xmlns="http://www.w3.org/2000/svg">
<g filter="url(#filter0_d_964_18510)">
<rect width="328" height="242" transform="translate(19 6)" fill="white"/>
<g clip-path="url(#clip0_964_18510)">
<g clip-path="url(#clip1_964_18510)">
<path opacity="0.15" d="M102.65 54.75H63.3503C63.3323 54.75 63.3203 54.7619 63.3203 54.7796V60.1849C63.3203 63.7291 66.2603 66.6037 69.8783 66.6037C72.3203 66.6037 74.4503 65.2998 75.5843 63.3617C75.7583 63.0594 76.0883 62.8698 76.4423 62.8698C76.7963 62.8698 77.1203 63.0594 77.3003 63.3617C78.4283 65.2998 80.5583 66.6037 83.0003 66.6037C85.4483 66.6037 87.5843 65.2938 88.7063 63.3498C88.8803 63.0535 89.1983 62.8698 89.5403 62.8698H89.5763C89.9243 62.8698 90.2363 63.0535 90.4103 63.3498C91.5383 65.2938 93.6743 66.6037 96.1223 66.6037C99.7403 66.6037 102.68 63.7291 102.68 60.1849V54.7796C102.68 54.7619 102.668 54.75 102.65 54.75Z" fill="#0D5C63"/>
<path d="M105.2 50.4889V42.8966C105.2 41.8475 104.342 41 103.28 41H62.72C61.658 41 60.8 41.8475 60.8 42.8966V50.4889C59.798 50.5481 59 51.372 59 52.3795V60.1851C58.9962 61.6197 59.2903 63.0398 59.864 64.3576C60.122 64.9622 60.44 65.5311 60.8 66.0705V86.518C60.8 87.5612 61.658 88.4146 62.72 88.4146H103.28C104.342 88.4146 105.2 87.5671 105.2 86.518V66.0705C105.566 65.5298 105.879 64.9563 106.136 64.3576C106.706 63.036 107 61.6313 107 60.1851V52.3795C107 51.372 106.202 50.5481 105.2 50.4889ZM65.12 45.2673H100.88V50.4829H65.12V45.2673ZM86.84 84.1532H79.16V77.9834H86.84V84.1532ZM100.904 84.1532H90.68V76.0868C90.68 75.0378 89.822 74.1902 88.76 74.1902H77.24C76.178 74.1902 75.32 75.0378 75.32 76.0868V84.1532H65.12V69.7985C65.294 69.8814 65.474 69.9644 65.66 70.0355C66.998 70.5927 68.42 70.8712 69.884 70.8712C71.348 70.8712 72.764 70.5927 74.108 70.0355C74.936 69.6918 75.716 69.2532 76.43 68.7257C76.442 68.7198 76.454 68.7198 76.466 68.7257C77.1822 69.2554 77.9622 69.6954 78.788 70.0355C80.126 70.5927 81.548 70.8712 83.012 70.8712C84.476 70.8712 85.892 70.5927 87.236 70.0355C88.064 69.6918 88.844 69.2532 89.558 68.7257C89.57 68.7198 89.582 68.7198 89.594 68.7257C90.3102 69.2554 91.0902 69.6954 91.916 70.0355C93.254 70.5927 94.676 70.8712 96.14 70.8712C97.604 70.8712 99.02 70.5927 100.364 70.0355C100.544 69.9585 100.724 69.8814 100.904 69.7985V84.1532V84.1532ZM102.68 60.1851C102.68 63.7294 99.74 66.6039 96.122 66.6039C93.674 66.6039 91.538 65.2941 90.41 63.3501C90.236 63.0537 89.924 62.87 89.576 62.87H89.54C89.198 62.87 88.88 63.0537 88.706 63.3501C88.1304 64.3417 87.2992 65.1652 86.297 65.7367C85.2948 66.3082 84.1572 66.6074 83 66.6039C80.558 66.6039 78.428 65.3 77.3 63.3619C77.12 63.0597 76.796 62.87 76.442 62.87C76.088 62.87 75.758 63.0597 75.584 63.3619C75.005 64.3498 74.1728 65.1695 73.1711 65.7387C72.1694 66.3078 71.0336 66.6062 69.878 66.6039C66.26 66.6039 63.32 63.7294 63.32 60.1851V54.7799C63.32 54.7621 63.332 54.7502 63.35 54.7502H102.65C102.668 54.7502 102.68 54.7621 102.68 54.7799V60.1851Z" fill="#0D5C63"/>
</g>
</g>
<path d="M64.88 110.32V114.76H72.656V117.88H64.88V124H60.992V107.2H73.688V110.32H64.88ZM75.9218 111.088H79.6658V124H75.9218V111.088ZM77.7938 109.288C77.1058 109.288 76.5458 109.088 76.1138 108.688C75.6818 108.288 75.4658 107.792 75.4658 107.2C75.4658 106.608 75.6818 106.112 76.1138 105.712C76.5458 105.312 77.1058 105.112 77.7938 105.112C78.4818 105.112 79.0418 105.304 79.4738 105.688C79.9058 106.072 80.1218 106.552 80.1218 107.128C80.1218 107.752 79.9058 108.272 79.4738 108.688C79.0418 109.088 78.4818 109.288 77.7938 109.288ZM91.0885 110.896C92.6885 110.896 93.9765 111.376 94.9525 112.336C95.9445 113.296 96.4405 114.72 96.4405 116.608V124H92.6965V117.184C92.6965 116.16 92.4725 115.4 92.0245 114.904C91.5765 114.392 90.9285 114.136 90.0805 114.136C89.1365 114.136 88.3845 114.432 87.8245 115.024C87.2645 115.6 86.9845 116.464 86.9845 117.616V124H83.2405V111.088H86.8165V112.6C87.3125 112.056 87.9285 111.64 88.6645 111.352C89.4005 111.048 90.2085 110.896 91.0885 110.896ZM105.142 110.896C107.142 110.896 108.678 111.376 109.75 112.336C110.822 113.28 111.358 114.712 111.358 116.632V124H107.854V122.392C107.15 123.592 105.838 124.192 103.918 124.192C102.926 124.192 102.062 124.024 101.326 123.688C100.606 123.352 100.054 122.888 99.6702 122.296C99.2862 121.704 99.0942 121.032 99.0942 120.28C99.0942 119.08 99.5422 118.136 100.438 117.448C101.35 116.76 102.75 116.416 104.638 116.416H107.614C107.614 115.6 107.366 114.976 106.87 114.544C106.374 114.096 105.63 113.872 104.638 113.872C103.95 113.872 103.27 113.984 102.598 114.208C101.942 114.416 101.382 114.704 100.918 115.072L99.5742 112.456C100.278 111.96 101.118 111.576 102.094 111.304C103.086 111.032 104.102 110.896 105.142 110.896ZM104.854 121.672C105.494 121.672 106.062 121.528 106.558 121.24C107.054 120.936 107.406 120.496 107.614 119.92V118.6H105.046C103.51 118.6 102.742 119.104 102.742 120.112C102.742 120.592 102.926 120.976 103.294 121.264C103.678 121.536 104.198 121.672 104.854 121.672ZM122.695 110.896C124.295 110.896 125.583 111.376 126.559 112.336C127.551 113.296 128.047 114.72 128.047 116.608V124H124.303V117.184C124.303 116.16 124.079 115.4 123.631 114.904C123.183 114.392 122.535 114.136 121.687 114.136C120.743 114.136 119.991 114.432 119.431 115.024C118.871 115.6 118.591 116.464 118.591 117.616V124H114.847V111.088H118.423V112.6C118.919 112.056 119.535 111.64 120.271 111.352C121.007 111.048 121.815 110.896 122.695 110.896ZM137.921 124.192C136.545 124.192 135.305 123.912 134.201 123.352C133.113 122.776 132.257 121.984 131.633 120.976C131.025 119.968 130.721 118.824 130.721 117.544C130.721 116.264 131.025 115.12 131.633 114.112C132.257 113.104 133.113 112.32 134.201 111.76C135.305 111.184 136.545 110.896 137.921 110.896C139.281 110.896 140.465 111.184 141.473 111.76C142.497 112.32 143.241 113.128 143.705 114.184L140.801 115.744C140.129 114.56 139.161 113.968 137.897 113.968C136.921 113.968 136.113 114.288 135.473 114.928C134.833 115.568 134.513 116.44 134.513 117.544C134.513 118.648 134.833 119.52 135.473 120.16C136.113 120.8 136.921 121.12 137.897 121.12C139.177 121.12 140.145 120.528 140.801 119.344L143.705 120.928C143.241 121.952 142.497 122.752 141.473 123.328C140.465 123.904 139.281 124.192 137.921 124.192ZM158.445 117.592C158.445 117.64 158.421 117.976 158.373 118.6H148.605C148.781 119.4 149.197 120.032 149.853 120.496C150.509 120.96 151.325 121.192 152.301 121.192C152.973 121.192 153.565 121.096 154.077 120.904C154.605 120.696 155.093 120.376 155.541 119.944L157.533 122.104C156.317 123.496 154.541 124.192 152.205 124.192C150.749 124.192 149.461 123.912 148.341 123.352C147.221 122.776 146.357 121.984 145.749 120.976C145.141 119.968 144.837 118.824 144.837 117.544C144.837 116.28 145.133 115.144 145.725 114.136C146.333 113.112 147.157 112.32 148.197 111.76C149.253 111.184 150.429 110.896 151.725 110.896C152.989 110.896 154.133 111.168 155.157 111.712C156.181 112.256 156.981 113.04 157.557 114.064C158.149 115.072 158.445 116.248 158.445 117.592ZM151.749 113.728C150.901 113.728 150.189 113.968 149.613 114.448C149.037 114.928 148.685 115.584 148.557 116.416H154.917C154.789 115.6 154.437 114.952 153.861 114.472C153.285 113.976 152.581 113.728 151.749 113.728ZM173.142 110.896C175.142 110.896 176.678 111.376 177.75 112.336C178.822 113.28 179.358 114.712 179.358 116.632V124H175.854V122.392C175.15 123.592 173.838 124.192 171.918 124.192C170.926 124.192 170.062 124.024 169.326 123.688C168.606 123.352 168.054 122.888 167.67 122.296C167.286 121.704 167.094 121.032 167.094 120.28C167.094 119.08 167.542 118.136 168.438 117.448C169.35 116.76 170.75 116.416 172.638 116.416H175.614C175.614 115.6 175.366 114.976 174.87 114.544C174.374 114.096 173.63 113.872 172.638 113.872C171.95 113.872 171.27 113.984 170.598 114.208C169.942 114.416 169.382 114.704 168.918 115.072L167.574 112.456C168.278 111.96 169.118 111.576 170.094 111.304C171.086 111.032 172.102 110.896 173.142 110.896ZM172.854 121.672C173.494 121.672 174.062 121.528 174.558 121.24C175.054 120.936 175.406 120.496 175.614 119.92V118.6H173.046C171.51 118.6 170.742 119.104 170.742 120.112C170.742 120.592 170.926 120.976 171.294 121.264C171.678 121.536 172.198 121.672 172.854 121.672ZM190.695 110.896C192.295 110.896 193.583 111.376 194.559 112.336C195.551 113.296 196.047 114.72 196.047 116.608V124H192.303V117.184C192.303 116.16 192.079 115.4 191.631 114.904C191.183 114.392 190.535 114.136 189.687 114.136C188.743 114.136 187.991 114.432 187.431 115.024C186.871 115.6 186.591 116.464 186.591 117.616V124H182.847V111.088H186.423V112.6C186.919 112.056 187.535 111.64 188.271 111.352C189.007 111.048 189.815 110.896 190.695 110.896ZM212.833 106.192V124H209.257V122.512C208.329 123.632 206.985 124.192 205.225 124.192C204.009 124.192 202.905 123.92 201.913 123.376C200.937 122.832 200.169 122.056 199.609 121.048C199.049 120.04 198.769 118.872 198.769 117.544C198.769 116.216 199.049 115.048 199.609 114.04C200.169 113.032 200.937 112.256 201.913 111.712C202.905 111.168 204.009 110.896 205.225 110.896C206.873 110.896 208.161 111.416 209.089 112.456V106.192H212.833ZM205.873 121.12C206.817 121.12 207.601 120.8 208.225 120.16C208.849 119.504 209.161 118.632 209.161 117.544C209.161 116.456 208.849 115.592 208.225 114.952C207.601 114.296 206.817 113.968 205.873 113.968C204.913 113.968 204.121 114.296 203.497 114.952C202.873 115.592 202.561 116.456 202.561 117.544C202.561 118.632 202.873 119.504 203.497 120.16C204.121 120.8 204.913 121.12 205.873 121.12ZM66.968 156.192C65.592 156.192 64.352 155.912 63.248 155.352C62.16 154.776 61.304 153.984 60.68 152.976C60.072 151.968 59.768 150.824 59.768 149.544C59.768 148.264 60.072 147.12 60.68 146.112C61.304 145.104 62.16 144.32 63.248 143.76C64.352 143.184 65.592 142.896 66.968 142.896C68.328 142.896 69.512 143.184 70.52 143.76C71.544 144.32 72.288 145.128 72.752 146.184L69.848 147.744C69.176 146.56 68.208 145.968 66.944 145.968C65.968 145.968 65.16 146.288 64.52 146.928C63.88 147.568 63.56 148.44 63.56 149.544C63.56 150.648 63.88 151.52 64.52 152.16C65.16 152.8 65.968 153.12 66.944 153.12C68.224 153.12 69.192 152.528 69.848 151.344L72.752 152.928C72.288 153.952 71.544 154.752 70.52 155.328C69.512 155.904 68.328 156.192 66.968 156.192ZM80.9876 156.192C79.6276 156.192 78.4036 155.912 77.3156 155.352C76.2436 154.776 75.4036 153.984 74.7956 152.976C74.1876 151.968 73.8836 150.824 73.8836 149.544C73.8836 148.264 74.1876 147.12 74.7956 146.112C75.4036 145.104 76.2436 144.32 77.3156 143.76C78.4036 143.184 79.6276 142.896 80.9876 142.896C82.3476 142.896 83.5636 143.184 84.6356 143.76C85.7076 144.32 86.5476 145.104 87.1556 146.112C87.7636 147.12 88.0676 148.264 88.0676 149.544C88.0676 150.824 87.7636 151.968 87.1556 152.976C86.5476 153.984 85.7076 154.776 84.6356 155.352C83.5636 155.912 82.3476 156.192 80.9876 156.192ZM80.9876 153.12C81.9476 153.12 82.7316 152.8 83.3396 152.16C83.9636 151.504 84.2756 150.632 84.2756 149.544C84.2756 148.456 83.9636 147.592 83.3396 146.952C82.7316 146.296 81.9476 145.968 80.9876 145.968C80.0276 145.968 79.2356 146.296 78.6116 146.952C77.9876 147.592 77.6756 148.456 77.6756 149.544C77.6756 150.632 77.9876 151.504 78.6116 152.16C79.2356 152.8 80.0276 153.12 80.9876 153.12ZM98.5182 142.896C100.118 142.896 101.406 143.376 102.382 144.336C103.374 145.296 103.87 146.72 103.87 148.608V156H100.126V149.184C100.126 148.16 99.9022 147.4 99.4542 146.904C99.0062 146.392 98.3582 146.136 97.5102 146.136C96.5662 146.136 95.8142 146.432 95.2542 147.024C94.6942 147.6 94.4142 148.464 94.4142 149.616V156H90.6702V143.088H94.2462V144.6C94.7422 144.056 95.3582 143.64 96.0942 143.352C96.8302 143.048 97.6382 142.896 98.5182 142.896ZM111.708 156.192C110.636 156.192 109.588 156.064 108.564 155.808C107.54 155.536 106.724 155.2 106.116 154.8L107.364 152.112C107.94 152.48 108.636 152.784 109.452 153.024C110.268 153.248 111.068 153.36 111.852 153.36C113.436 153.36 114.228 152.968 114.228 152.184C114.228 151.816 114.012 151.552 113.58 151.392C113.148 151.232 112.484 151.096 111.588 150.984C110.532 150.824 109.66 150.64 108.972 150.432C108.284 150.224 107.684 149.856 107.172 149.328C106.676 148.8 106.428 148.048 106.428 147.072C106.428 146.256 106.66 145.536 107.124 144.912C107.604 144.272 108.292 143.776 109.188 143.424C110.1 143.072 111.172 142.896 112.404 142.896C113.316 142.896 114.22 143 115.116 143.208C116.028 143.4 116.78 143.672 117.372 144.024L116.124 146.688C114.988 146.048 113.748 145.728 112.404 145.728C111.604 145.728 111.004 145.84 110.604 146.064C110.204 146.288 110.004 146.576 110.004 146.928C110.004 147.328 110.22 147.608 110.652 147.768C111.084 147.928 111.772 148.08 112.716 148.224C113.772 148.4 114.636 148.592 115.308 148.8C115.98 148.992 116.564 149.352 117.06 149.88C117.556 150.408 117.804 151.144 117.804 152.088C117.804 152.888 117.564 153.6 117.084 154.224C116.604 154.848 115.9 155.336 114.972 155.688C114.06 156.024 112.972 156.192 111.708 156.192ZM133.222 143.088V156H129.67V154.464C129.174 155.024 128.582 155.456 127.894 155.76C127.206 156.048 126.462 156.192 125.662 156.192C123.966 156.192 122.622 155.704 121.63 154.728C120.638 153.752 120.142 152.304 120.142 150.384V143.088H123.886V149.832C123.886 151.912 124.758 152.952 126.502 152.952C127.398 152.952 128.118 152.664 128.662 152.088C129.206 151.496 129.478 150.624 129.478 149.472V143.088H133.222ZM136.791 138.192H140.535V156H136.791V138.192ZM153.375 155.376C153.007 155.648 152.551 155.856 152.007 156C151.479 156.128 150.919 156.192 150.327 156.192C148.791 156.192 147.599 155.8 146.751 155.016C145.919 154.232 145.503 153.08 145.503 151.56V146.256H143.511V143.376H145.503V140.232H149.247V143.376H152.463V146.256H149.247V151.512C149.247 152.056 149.383 152.48 149.655 152.784C149.943 153.072 150.343 153.216 150.855 153.216C151.447 153.216 151.951 153.056 152.367 152.736L153.375 155.376ZM160.784 142.896C162.784 142.896 164.32 143.376 165.392 144.336C166.464 145.28 167 146.712 167 148.632V156H163.496V154.392C162.792 155.592 161.48 156.192 159.56 156.192C158.568 156.192 157.704 156.024 156.968 155.688C156.248 155.352 155.696 154.888 155.312 154.296C154.928 153.704 154.736 153.032 154.736 152.28C154.736 151.08 155.184 150.136 156.08 149.448C156.992 148.76 158.392 148.416 160.28 148.416H163.256C163.256 147.6 163.008 146.976 162.512 146.544C162.016 146.096 161.272 145.872 160.28 145.872C159.592 145.872 158.912 145.984 158.24 146.208C157.584 146.416 157.024 146.704 156.56 147.072L155.216 144.456C155.92 143.96 156.76 143.576 157.736 143.304C158.728 143.032 159.744 142.896 160.784 142.896ZM160.496 153.672C161.136 153.672 161.704 153.528 162.2 153.24C162.696 152.936 163.048 152.496 163.256 151.92V150.6H160.688C159.152 150.6 158.384 151.104 158.384 152.112C158.384 152.592 158.568 152.976 158.936 153.264C159.32 153.536 159.84 153.672 160.496 153.672ZM178.337 142.896C179.937 142.896 181.225 143.376 182.201 144.336C183.193 145.296 183.689 146.72 183.689 148.608V156H179.945V149.184C179.945 148.16 179.721 147.4 179.273 146.904C178.825 146.392 178.177 146.136 177.329 146.136C176.385 146.136 175.633 146.432 175.073 147.024C174.513 147.6 174.233 148.464 174.233 149.616V156H170.489V143.088H174.065V144.6C174.561 144.056 175.177 143.64 175.913 143.352C176.649 143.048 177.457 142.896 178.337 142.896ZM193.563 156.192C192.187 156.192 190.947 155.912 189.843 155.352C188.755 154.776 187.899 153.984 187.275 152.976C186.667 151.968 186.363 150.824 186.363 149.544C186.363 148.264 186.667 147.12 187.275 146.112C187.899 145.104 188.755 144.32 189.843 143.76C190.947 143.184 192.187 142.896 193.563 142.896C194.923 142.896 196.107 143.184 197.115 143.76C198.139 144.32 198.883 145.128 199.347 146.184L196.443 147.744C195.771 146.56 194.803 145.968 193.539 145.968C192.563 145.968 191.755 146.288 191.115 146.928C190.475 147.568 190.155 148.44 190.155 149.544C190.155 150.648 190.475 151.52 191.115 152.16C191.755 152.8 192.563 153.12 193.539 153.12C194.819 153.12 195.787 152.528 196.443 151.344L199.347 152.928C198.883 153.952 198.139 154.752 197.115 155.328C196.107 155.904 194.923 156.192 193.563 156.192ZM214.232 143.088L208.4 156.792C207.808 158.28 207.072 159.328 206.192 159.936C205.328 160.544 204.28 160.848 203.048 160.848C202.376 160.848 201.712 160.744 201.056 160.536C200.4 160.328 199.864 160.04 199.447 159.672L200.816 157.008C201.104 157.264 201.432 157.464 201.8 157.608C202.184 157.752 202.56 157.824 202.928 157.824C203.44 157.824 203.856 157.696 204.176 157.44C204.496 157.2 204.784 156.792 205.04 156.216L205.088 156.096L199.495 143.088H203.36L206.984 151.848L210.632 143.088H214.232Z" fill="#252B42"/>
<path d="M61.73 188.112C61.142 188.112 60.596 187.991 60.092 187.748C59.588 187.496 59.182 187.146 58.874 186.698L59.686 185.746C60.2273 186.521 60.9087 186.908 61.73 186.908C62.2807 186.908 62.696 186.74 62.976 186.404C63.2653 186.068 63.41 185.573 63.41 184.92V179.418H59.868V178.2H64.796V184.85C64.796 185.933 64.5347 186.749 64.012 187.3C63.4987 187.841 62.738 188.112 61.73 188.112ZM74.5677 180.58V188H73.2937V186.88C73.0231 187.263 72.6637 187.561 72.2157 187.776C71.7771 187.981 71.2964 188.084 70.7737 188.084C69.7844 188.084 69.0051 187.813 68.4357 187.272C67.8664 186.721 67.5817 185.914 67.5817 184.85V180.58H68.9257V184.696C68.9257 185.415 69.0984 185.961 69.4437 186.334C69.7891 186.698 70.2837 186.88 70.9277 186.88C71.6371 186.88 72.1971 186.665 72.6077 186.236C73.0184 185.807 73.2237 185.2 73.2237 184.416V180.58H74.5677ZM79.4543 188.084C78.8477 188.084 78.2643 188.005 77.7043 187.846C77.1443 187.678 76.7057 187.468 76.3883 187.216L76.9483 186.152C77.275 186.385 77.6717 186.572 78.1383 186.712C78.605 186.852 79.0763 186.922 79.5523 186.922C80.7283 186.922 81.3163 186.586 81.3163 185.914C81.3163 185.69 81.237 185.513 81.0783 185.382C80.9197 185.251 80.719 185.158 80.4763 185.102C80.243 185.037 79.907 184.967 79.4683 184.892C78.871 184.799 78.381 184.691 77.9983 184.57C77.625 184.449 77.303 184.243 77.0323 183.954C76.7617 183.665 76.6263 183.259 76.6263 182.736C76.6263 182.064 76.9063 181.527 77.4663 181.126C78.0263 180.715 78.7777 180.51 79.7203 180.51C80.215 180.51 80.7097 180.571 81.2043 180.692C81.699 180.813 82.105 180.977 82.4223 181.182L81.8483 182.246C81.2417 181.854 80.5277 181.658 79.7063 181.658C79.137 181.658 78.703 181.751 78.4043 181.938C78.1057 182.125 77.9563 182.372 77.9563 182.68C77.9563 182.923 78.0403 183.114 78.2083 183.254C78.3763 183.394 78.5817 183.497 78.8243 183.562C79.0763 183.627 79.4263 183.702 79.8743 183.786C80.4717 183.889 80.9523 184.001 81.3163 184.122C81.6897 184.234 82.007 184.43 82.2683 184.71C82.5297 184.99 82.6603 185.382 82.6603 185.886C82.6603 186.558 82.371 187.095 81.7923 187.496C81.223 187.888 80.4437 188.084 79.4543 188.084ZM88.712 187.566C88.516 187.734 88.2733 187.865 87.984 187.958C87.6947 188.042 87.396 188.084 87.088 188.084C86.3413 188.084 85.7627 187.883 85.352 187.482C84.9413 187.081 84.736 186.507 84.736 185.76V181.686H83.476V180.58H84.736V178.956H86.08V180.58H88.208V181.686H86.08V185.704C86.08 186.105 86.178 186.413 86.374 186.628C86.5793 186.843 86.8687 186.95 87.242 186.95C87.6527 186.95 88.0027 186.833 88.292 186.6L88.712 187.566ZM98.6687 187.566C98.4727 187.734 98.23 187.865 97.9407 187.958C97.6513 188.042 97.3527 188.084 97.0447 188.084C96.298 188.084 95.7193 187.883 95.3087 187.482C94.898 187.081 94.6927 186.507 94.6927 185.76V181.686H93.4327V180.58H94.6927V178.956H96.0367V180.58H98.1647V181.686H96.0367V185.704C96.0367 186.105 96.1347 186.413 96.3307 186.628C96.536 186.843 96.8253 186.95 97.1987 186.95C97.6093 186.95 97.9593 186.833 98.2487 186.6L98.6687 187.566ZM106.923 180.58L103.325 188.742C103.007 189.498 102.634 190.03 102.205 190.338C101.785 190.646 101.276 190.8 100.679 190.8C100.315 190.8 99.9601 190.739 99.6148 190.618C99.2788 190.506 98.9988 190.338 98.7748 190.114L99.3488 189.106C99.7315 189.47 100.175 189.652 100.679 189.652C101.005 189.652 101.276 189.563 101.491 189.386C101.715 189.218 101.915 188.924 102.093 188.504L102.331 187.986L99.0548 180.58H100.455L103.045 186.516L105.607 180.58H106.923ZM112.311 180.51C113.03 180.51 113.674 180.669 114.243 180.986C114.812 181.303 115.256 181.747 115.573 182.316C115.9 182.885 116.063 183.543 116.063 184.29C116.063 185.037 115.9 185.699 115.573 186.278C115.256 186.847 114.812 187.291 114.243 187.608C113.674 187.925 113.03 188.084 112.311 188.084C111.779 188.084 111.289 187.981 110.841 187.776C110.402 187.571 110.029 187.272 109.721 186.88V190.716H108.377V180.58H109.665V181.756C109.964 181.345 110.342 181.037 110.799 180.832C111.256 180.617 111.76 180.51 112.311 180.51ZM112.199 186.908C112.675 186.908 113.1 186.801 113.473 186.586C113.856 186.362 114.154 186.054 114.369 185.662C114.593 185.261 114.705 184.803 114.705 184.29C114.705 183.777 114.593 183.324 114.369 182.932C114.154 182.531 113.856 182.223 113.473 182.008C113.1 181.793 112.675 181.686 112.199 181.686C111.732 181.686 111.308 181.798 110.925 182.022C110.552 182.237 110.253 182.54 110.029 182.932C109.814 183.324 109.707 183.777 109.707 184.29C109.707 184.803 109.814 185.261 110.029 185.662C110.244 186.054 110.542 186.362 110.925 186.586C111.308 186.801 111.732 186.908 112.199 186.908ZM124.826 184.332C124.826 184.435 124.817 184.57 124.798 184.738H118.778C118.862 185.391 119.147 185.919 119.632 186.32C120.127 186.712 120.738 186.908 121.466 186.908C122.353 186.908 123.067 186.609 123.608 186.012L124.35 186.88C124.014 187.272 123.594 187.571 123.09 187.776C122.595 187.981 122.04 188.084 121.424 188.084C120.64 188.084 119.945 187.925 119.338 187.608C118.731 187.281 118.26 186.829 117.924 186.25C117.597 185.671 117.434 185.018 117.434 184.29C117.434 183.571 117.593 182.923 117.91 182.344C118.237 181.765 118.68 181.317 119.24 181C119.809 180.673 120.449 180.51 121.158 180.51C121.867 180.51 122.497 180.673 123.048 181C123.608 181.317 124.042 181.765 124.35 182.344C124.667 182.923 124.826 183.585 124.826 184.332ZM121.158 181.644C120.514 181.644 119.973 181.84 119.534 182.232C119.105 182.624 118.853 183.137 118.778 183.772H123.538C123.463 183.147 123.207 182.638 122.768 182.246C122.339 181.845 121.802 181.644 121.158 181.644ZM142.08 180.58L139.308 188H138.02L135.878 182.372L133.708 188H132.42L129.662 180.58H130.936L133.092 186.488L135.332 180.58H136.466L138.664 186.516L140.876 180.58H142.08ZM147.606 180.51C148.549 180.51 149.295 180.785 149.846 181.336C150.406 181.877 150.686 182.675 150.686 183.73V188H149.342V183.884C149.342 183.165 149.169 182.624 148.824 182.26C148.479 181.896 147.984 181.714 147.34 181.714C146.612 181.714 146.038 181.929 145.618 182.358C145.198 182.778 144.988 183.385 144.988 184.178V188H143.644V177.612H144.988V181.63C145.268 181.275 145.632 181 146.08 180.804C146.537 180.608 147.046 180.51 147.606 180.51ZM156.075 180.51C157.102 180.51 157.886 180.762 158.427 181.266C158.978 181.77 159.253 182.521 159.253 183.52V188H157.979V187.02C157.755 187.365 157.433 187.631 157.013 187.818C156.603 187.995 156.113 188.084 155.543 188.084C154.713 188.084 154.045 187.883 153.541 187.482C153.047 187.081 152.799 186.553 152.799 185.9C152.799 185.247 153.037 184.724 153.513 184.332C153.989 183.931 154.745 183.73 155.781 183.73H157.909V183.464C157.909 182.885 157.741 182.442 157.405 182.134C157.069 181.826 156.575 181.672 155.921 181.672C155.483 181.672 155.053 181.747 154.633 181.896C154.213 182.036 153.859 182.227 153.569 182.47L153.009 181.462C153.392 181.154 153.849 180.921 154.381 180.762C154.913 180.594 155.478 180.51 156.075 180.51ZM155.767 187.048C156.281 187.048 156.724 186.936 157.097 186.712C157.471 186.479 157.741 186.152 157.909 185.732V184.696H155.837C154.699 184.696 154.129 185.079 154.129 185.844C154.129 186.217 154.274 186.511 154.563 186.726C154.853 186.941 155.254 187.048 155.767 187.048ZM166.112 187.566C165.916 187.734 165.674 187.865 165.384 187.958C165.095 188.042 164.796 188.084 164.488 188.084C163.742 188.084 163.163 187.883 162.752 187.482C162.342 187.081 162.136 186.507 162.136 185.76V181.686H160.876V180.58H162.136V178.956H163.48V180.58H165.608V181.686H163.48V185.704C163.48 186.105 163.578 186.413 163.774 186.628C163.98 186.843 164.269 186.95 164.642 186.95C165.053 186.95 165.403 186.833 165.692 186.6L166.112 187.566ZM167.545 178.2H168.721L168.623 181.98H167.629L167.545 178.2ZM173.205 188.084C172.598 188.084 172.015 188.005 171.455 187.846C170.895 187.678 170.456 187.468 170.139 187.216L170.699 186.152C171.025 186.385 171.422 186.572 171.889 186.712C172.355 186.852 172.827 186.922 173.303 186.922C174.479 186.922 175.067 186.586 175.067 185.914C175.067 185.69 174.987 185.513 174.829 185.382C174.67 185.251 174.469 185.158 174.227 185.102C173.993 185.037 173.657 184.967 173.219 184.892C172.621 184.799 172.131 184.691 171.749 184.57C171.375 184.449 171.053 184.243 170.783 183.954C170.512 183.665 170.377 183.259 170.377 182.736C170.377 182.064 170.657 181.527 171.217 181.126C171.777 180.715 172.528 180.51 173.471 180.51C173.965 180.51 174.46 180.571 174.955 180.692C175.449 180.813 175.855 180.977 176.173 181.182L175.599 182.246C174.992 181.854 174.278 181.658 173.457 181.658C172.887 181.658 172.453 181.751 172.155 181.938C171.856 182.125 171.707 182.372 171.707 182.68C171.707 182.923 171.791 183.114 171.959 183.254C172.127 183.394 172.332 183.497 172.575 183.562C172.827 183.627 173.177 183.702 173.625 183.786C174.222 183.889 174.703 184.001 175.067 184.122C175.44 184.234 175.757 184.43 176.019 184.71C176.28 184.99 176.411 185.382 176.411 185.886C176.411 186.558 176.121 187.095 175.543 187.496C174.973 187.888 174.194 188.084 173.205 188.084ZM185.428 188.084C184.691 188.084 184.028 187.921 183.44 187.594C182.852 187.267 182.39 186.819 182.054 186.25C181.728 185.671 181.564 185.018 181.564 184.29C181.564 183.562 181.728 182.913 182.054 182.344C182.39 181.765 182.852 181.317 183.44 181C184.028 180.673 184.691 180.51 185.428 180.51C186.166 180.51 186.824 180.673 187.402 181C187.99 181.317 188.448 181.765 188.774 182.344C189.11 182.913 189.278 183.562 189.278 184.29C189.278 185.018 189.11 185.671 188.774 186.25C188.448 186.819 187.99 187.267 187.402 187.594C186.824 187.921 186.166 188.084 185.428 188.084ZM185.428 186.908C185.904 186.908 186.329 186.801 186.702 186.586C187.085 186.362 187.384 186.054 187.598 185.662C187.813 185.261 187.92 184.803 187.92 184.29C187.92 183.777 187.813 183.324 187.598 182.932C187.384 182.531 187.085 182.223 186.702 182.008C186.329 181.793 185.904 181.686 185.428 181.686C184.952 181.686 184.523 181.793 184.14 182.008C183.767 182.223 183.468 182.531 183.244 182.932C183.03 183.324 182.922 183.777 182.922 184.29C182.922 184.803 183.03 185.261 183.244 185.662C183.468 186.054 183.767 186.362 184.14 186.586C184.523 186.801 184.952 186.908 185.428 186.908ZM195.299 180.51C196.242 180.51 196.988 180.785 197.539 181.336C198.099 181.877 198.379 182.675 198.379 183.73V188H197.035V183.884C197.035 183.165 196.862 182.624 196.517 182.26C196.172 181.896 195.677 181.714 195.033 181.714C194.305 181.714 193.731 181.929 193.311 182.358C192.891 182.778 192.681 183.385 192.681 184.178V188H191.337V180.58H192.625V181.7C192.896 181.317 193.26 181.023 193.717 180.818C194.184 180.613 194.711 180.51 195.299 180.51ZM211.592 180.58L207.994 188.742C207.677 189.498 207.303 190.03 206.874 190.338C206.454 190.646 205.945 190.8 205.348 190.8C204.984 190.8 204.629 190.739 204.284 190.618C203.948 190.506 203.668 190.338 203.444 190.114L204.018 189.106C204.401 189.47 204.844 189.652 205.348 189.652C205.675 189.652 205.945 189.563 206.16 189.386C206.384 189.218 206.585 188.924 206.762 188.504L207 187.986L203.724 180.58H205.124L207.714 186.516L210.276 180.58H211.592ZM216.019 188.084C215.282 188.084 214.619 187.921 214.031 187.594C213.443 187.267 212.981 186.819 212.645 186.25C212.319 185.671 212.155 185.018 212.155 184.29C212.155 183.562 212.319 182.913 212.645 182.344C212.981 181.765 213.443 181.317 214.031 181C214.619 180.673 215.282 180.51 216.019 180.51C216.757 180.51 217.415 180.673 217.993 181C218.581 181.317 219.039 181.765 219.365 182.344C219.701 182.913 219.869 183.562 219.869 184.29C219.869 185.018 219.701 185.671 219.365 186.25C219.039 186.819 218.581 187.267 217.993 187.594C217.415 187.921 216.757 188.084 216.019 188.084ZM216.019 186.908C216.495 186.908 216.92 186.801 217.293 186.586C217.676 186.362 217.975 186.054 218.189 185.662C218.404 185.261 218.511 184.803 218.511 184.29C218.511 183.777 218.404 183.324 218.189 182.932C217.975 182.531 217.676 182.223 217.293 182.008C216.92 181.793 216.495 181.686 216.019 181.686C215.543 181.686 215.114 181.793 214.731 182.008C214.358 182.223 214.059 182.531 213.835 182.932C213.621 183.324 213.513 183.777 213.513 184.29C213.513 184.803 213.621 185.261 213.835 185.662C214.059 186.054 214.358 186.362 214.731 186.586C215.114 186.801 215.543 186.908 216.019 186.908ZM228.844 180.58V188H227.57V186.88C227.299 187.263 226.94 187.561 226.492 187.776C226.053 187.981 225.573 188.084 225.05 188.084C224.061 188.084 223.281 187.813 222.712 187.272C222.143 186.721 221.858 185.914 221.858 184.85V180.58H223.202V184.696C223.202 185.415 223.375 185.961 223.72 186.334C224.065 186.698 224.56 186.88 225.204 186.88C225.913 186.88 226.473 186.665 226.884 186.236C227.295 185.807 227.5 185.2 227.5 184.416V180.58H228.844ZM232.891 181.826C233.124 181.397 233.469 181.07 233.927 180.846C234.384 180.622 234.939 180.51 235.593 180.51V181.812C235.518 181.803 235.415 181.798 235.285 181.798C234.557 181.798 233.983 182.017 233.563 182.456C233.152 182.885 232.947 183.501 232.947 184.304V188H231.603V180.58H232.891V181.826ZM250.786 180.51C251.72 180.51 252.457 180.781 252.998 181.322C253.549 181.863 253.824 182.666 253.824 183.73V188H252.48V183.884C252.48 183.165 252.312 182.624 251.976 182.26C251.65 181.896 251.178 181.714 250.562 181.714C249.881 181.714 249.34 181.929 248.938 182.358C248.537 182.778 248.336 183.385 248.336 184.178V188H246.992V183.884C246.992 183.165 246.824 182.624 246.488 182.26C246.162 181.896 245.69 181.714 245.074 181.714C244.393 181.714 243.852 181.929 243.45 182.358C243.049 182.778 242.848 183.385 242.848 184.178V188H241.504V180.58H242.792V181.686C243.063 181.303 243.418 181.014 243.856 180.818C244.295 180.613 244.794 180.51 245.354 180.51C245.933 180.51 246.446 180.627 246.894 180.86C247.342 181.093 247.688 181.434 247.93 181.882C248.21 181.453 248.598 181.117 249.092 180.874C249.596 180.631 250.161 180.51 250.786 180.51ZM256.497 180.58H257.841V188H256.497V180.58ZM257.169 179.152C256.908 179.152 256.689 179.068 256.511 178.9C256.343 178.732 256.259 178.527 256.259 178.284C256.259 178.041 256.343 177.836 256.511 177.668C256.689 177.491 256.908 177.402 257.169 177.402C257.431 177.402 257.645 177.486 257.813 177.654C257.991 177.813 258.079 178.013 258.079 178.256C258.079 178.508 257.991 178.723 257.813 178.9C257.645 179.068 257.431 179.152 257.169 179.152ZM264.57 180.51C265.512 180.51 266.259 180.785 266.81 181.336C267.37 181.877 267.65 182.675 267.65 183.73V188H266.306V183.884C266.306 183.165 266.133 182.624 265.788 182.26C265.442 181.896 264.948 181.714 264.304 181.714C263.576 181.714 263.002 181.929 262.582 182.358C262.162 182.778 261.952 183.385 261.952 184.178V188H260.608V180.58H261.896V181.7C262.166 181.317 262.53 181.023 262.988 180.818C263.454 180.613 263.982 180.51 264.57 180.51ZM277.378 177.612V188H276.09V186.824C275.791 187.235 275.413 187.547 274.956 187.762C274.499 187.977 273.995 188.084 273.444 188.084C272.725 188.084 272.081 187.925 271.512 187.608C270.943 187.291 270.495 186.847 270.168 186.278C269.851 185.699 269.692 185.037 269.692 184.29C269.692 183.543 269.851 182.885 270.168 182.316C270.495 181.747 270.943 181.303 271.512 180.986C272.081 180.669 272.725 180.51 273.444 180.51C273.976 180.51 274.466 180.613 274.914 180.818C275.362 181.014 275.735 181.308 276.034 181.7V177.612H277.378ZM273.556 186.908C274.023 186.908 274.447 186.801 274.83 186.586C275.213 186.362 275.511 186.054 275.726 185.662C275.941 185.261 276.048 184.803 276.048 184.29C276.048 183.777 275.941 183.324 275.726 182.932C275.511 182.531 275.213 182.223 274.83 182.008C274.447 181.793 274.023 181.686 273.556 181.686C273.08 181.686 272.651 181.793 272.268 182.008C271.895 182.223 271.596 182.531 271.372 182.932C271.157 183.324 271.05 183.777 271.05 184.29C271.05 184.803 271.157 185.261 271.372 185.662C271.596 186.054 271.895 186.362 272.268 186.586C272.651 186.801 273.08 186.908 273.556 186.908ZM62.976 200.51C64.0027 200.51 64.7867 200.762 65.328 201.266C65.8787 201.77 66.154 202.521 66.154 203.52V208H64.88V207.02C64.656 207.365 64.334 207.631 63.914 207.818C63.5033 207.995 63.0133 208.084 62.444 208.084C61.6133 208.084 60.946 207.883 60.442 207.482C59.9473 207.081 59.7 206.553 59.7 205.9C59.7 205.247 59.938 204.724 60.414 204.332C60.89 203.931 61.646 203.73 62.682 203.73H64.81V203.464C64.81 202.885 64.642 202.442 64.306 202.134C63.97 201.826 63.4753 201.672 62.822 201.672C62.3833 201.672 61.954 201.747 61.534 201.896C61.114 202.036 60.7593 202.227 60.47 202.47L59.91 201.462C60.2927 201.154 60.75 200.921 61.282 200.762C61.814 200.594 62.3787 200.51 62.976 200.51ZM62.668 207.048C63.1813 207.048 63.6247 206.936 63.998 206.712C64.3713 206.479 64.642 206.152 64.81 205.732V204.696H62.738C61.5993 204.696 61.03 205.079 61.03 205.844C61.03 206.217 61.1747 206.511 61.464 206.726C61.7533 206.941 62.1547 207.048 62.668 207.048ZM72.8032 200.51C73.7459 200.51 74.4925 200.785 75.0432 201.336C75.6032 201.877 75.8832 202.675 75.8832 203.73V208H74.5392V203.884C74.5392 203.165 74.3665 202.624 74.0212 202.26C73.6759 201.896 73.1812 201.714 72.5372 201.714C71.8092 201.714 71.2352 201.929 70.8152 202.358C70.3952 202.778 70.1852 203.385 70.1852 204.178V208H68.8412V200.58H70.1292V201.7C70.3999 201.317 70.7639 201.023 71.2212 200.818C71.6879 200.613 72.2152 200.51 72.8032 200.51ZM85.6115 197.612V208H84.3235V206.824C84.0248 207.235 83.6468 207.547 83.1895 207.762C82.7322 207.977 82.2282 208.084 81.6775 208.084C80.9588 208.084 80.3148 207.925 79.7455 207.608C79.1762 207.291 78.7282 206.847 78.4015 206.278C78.0842 205.699 77.9255 205.037 77.9255 204.29C77.9255 203.543 78.0842 202.885 78.4015 202.316C78.7282 201.747 79.1762 201.303 79.7455 200.986C80.3148 200.669 80.9588 200.51 81.6775 200.51C82.2095 200.51 82.6995 200.613 83.1475 200.818C83.5955 201.014 83.9688 201.308 84.2675 201.7V197.612H85.6115ZM81.7895 206.908C82.2562 206.908 82.6808 206.801 83.0635 206.586C83.4462 206.362 83.7448 206.054 83.9595 205.662C84.1742 205.261 84.2815 204.803 84.2815 204.29C84.2815 203.777 84.1742 203.324 83.9595 202.932C83.7448 202.531 83.4462 202.223 83.0635 202.008C82.6808 201.793 82.2562 201.686 81.7895 201.686C81.3135 201.686 80.8842 201.793 80.5015 202.008C80.1282 202.223 79.8295 202.531 79.6055 202.932C79.3908 203.324 79.2835 203.777 79.2835 204.29C79.2835 204.803 79.3908 205.261 79.6055 205.662C79.8295 206.054 80.1282 206.362 80.5015 206.586C80.8842 206.801 81.3135 206.908 81.7895 206.908ZM103.542 200.58L100.77 208H99.4822L97.3402 202.372L95.1702 208H93.8822L91.1242 200.58H92.3982L94.5542 206.488L96.7942 200.58H97.9282L100.126 206.516L102.338 200.58H103.542ZM111.607 204.332C111.607 204.435 111.598 204.57 111.579 204.738H105.559C105.643 205.391 105.928 205.919 106.413 206.32C106.908 206.712 107.519 206.908 108.247 206.908C109.134 206.908 109.848 206.609 110.389 206.012L111.131 206.88C110.795 207.272 110.375 207.571 109.871 207.776C109.376 207.981 108.821 208.084 108.205 208.084C107.421 208.084 106.726 207.925 106.119 207.608C105.512 207.281 105.041 206.829 104.705 206.25C104.378 205.671 104.215 205.018 104.215 204.29C104.215 203.571 104.374 202.923 104.691 202.344C105.018 201.765 105.461 201.317 106.021 201C106.59 200.673 107.23 200.51 107.939 200.51C108.648 200.51 109.278 200.673 109.829 201C110.389 201.317 110.823 201.765 111.131 202.344C111.448 202.923 111.607 203.585 111.607 204.332ZM107.939 201.644C107.295 201.644 106.754 201.84 106.315 202.232C105.886 202.624 105.634 203.137 105.559 203.772H110.319C110.244 203.147 109.988 202.638 109.549 202.246C109.12 201.845 108.583 201.644 107.939 201.644ZM112.967 198.2H114.143L114.045 201.98H113.051L112.967 198.2ZM116.498 197.612H117.842V208H116.498V197.612ZM120.608 197.612H121.952V208H120.608V197.612ZM135.776 200.58V206.992C135.776 208.289 135.454 209.246 134.81 209.862C134.166 210.487 133.205 210.8 131.926 210.8C131.226 210.8 130.559 210.702 129.924 210.506C129.29 210.319 128.776 210.049 128.384 209.694L129.028 208.658C129.374 208.957 129.798 209.19 130.302 209.358C130.816 209.535 131.343 209.624 131.884 209.624C132.752 209.624 133.392 209.419 133.802 209.008C134.222 208.597 134.432 207.972 134.432 207.132V206.544C134.115 206.927 133.723 207.216 133.256 207.412C132.799 207.599 132.3 207.692 131.758 207.692C131.049 207.692 130.405 207.543 129.826 207.244C129.257 206.936 128.809 206.511 128.482 205.97C128.156 205.419 127.992 204.794 127.992 204.094C127.992 203.394 128.156 202.773 128.482 202.232C128.809 201.681 129.257 201.257 129.826 200.958C130.405 200.659 131.049 200.51 131.758 200.51C132.318 200.51 132.836 200.613 133.312 200.818C133.798 201.023 134.194 201.327 134.502 201.728V200.58H135.776ZM131.912 206.516C132.398 206.516 132.832 206.413 133.214 206.208C133.606 206.003 133.91 205.718 134.124 205.354C134.348 204.981 134.46 204.561 134.46 204.094C134.46 203.375 134.222 202.797 133.746 202.358C133.27 201.91 132.659 201.686 131.912 201.686C131.156 201.686 130.54 201.91 130.064 202.358C129.588 202.797 129.35 203.375 129.35 204.094C129.35 204.561 129.458 204.981 129.672 205.354C129.896 205.718 130.2 206.003 130.582 206.208C130.974 206.413 131.418 206.516 131.912 206.516ZM145.25 204.332C145.25 204.435 145.241 204.57 145.222 204.738H139.202C139.286 205.391 139.571 205.919 140.056 206.32C140.551 206.712 141.162 206.908 141.89 206.908C142.777 206.908 143.491 206.609 144.032 206.012L144.774 206.88C144.438 207.272 144.018 207.571 143.514 207.776C143.02 207.981 142.464 208.084 141.848 208.084C141.064 208.084 140.369 207.925 139.762 207.608C139.156 207.281 138.684 206.829 138.348 206.25C138.022 205.671 137.858 205.018 137.858 204.29C137.858 203.571 138.017 202.923 138.334 202.344C138.661 201.765 139.104 201.317 139.664 201C140.234 200.673 140.873 200.51 141.582 200.51C142.292 200.51 142.922 200.673 143.472 201C144.032 201.317 144.466 201.765 144.774 202.344C145.092 202.923 145.25 203.585 145.25 204.332ZM141.582 201.644C140.938 201.644 140.397 201.84 139.958 202.232C139.529 202.624 139.277 203.137 139.202 203.772H143.962C143.888 203.147 143.631 202.638 143.192 202.246C142.763 201.845 142.226 201.644 141.582 201.644ZM151.489 207.566C151.293 207.734 151.05 207.865 150.761 207.958C150.471 208.042 150.173 208.084 149.865 208.084C149.118 208.084 148.539 207.883 148.129 207.482C147.718 207.081 147.513 206.507 147.513 205.76V201.686H146.253V200.58H147.513V198.956H148.857V200.58H150.985V201.686H148.857V205.704C148.857 206.105 148.955 206.413 149.151 206.628C149.356 206.843 149.645 206.95 150.019 206.95C150.429 206.95 150.779 206.833 151.069 206.6L151.489 207.566ZM163.839 200.58L160.241 208.742C159.924 209.498 159.551 210.03 159.121 210.338C158.701 210.646 158.193 210.8 157.595 210.8C157.231 210.8 156.877 210.739 156.531 210.618C156.195 210.506 155.915 210.338 155.691 210.114L156.265 209.106C156.648 209.47 157.091 209.652 157.595 209.652C157.922 209.652 158.193 209.563 158.407 209.386C158.631 209.218 158.832 208.924 159.009 208.504L159.247 207.986L155.971 200.58H157.371L159.961 206.516L162.523 200.58H163.839ZM168.266 208.084C167.529 208.084 166.866 207.921 166.278 207.594C165.69 207.267 165.228 206.819 164.892 206.25C164.566 205.671 164.402 205.018 164.402 204.29C164.402 203.562 164.566 202.913 164.892 202.344C165.228 201.765 165.69 201.317 166.278 201C166.866 200.673 167.529 200.51 168.266 200.51C169.004 200.51 169.662 200.673 170.24 201C170.828 201.317 171.286 201.765 171.612 202.344C171.948 202.913 172.116 203.562 172.116 204.29C172.116 205.018 171.948 205.671 171.612 206.25C171.286 206.819 170.828 207.267 170.24 207.594C169.662 207.921 169.004 208.084 168.266 208.084ZM168.266 206.908C168.742 206.908 169.167 206.801 169.54 206.586C169.923 206.362 170.222 206.054 170.436 205.662C170.651 205.261 170.758 204.803 170.758 204.29C170.758 203.777 170.651 203.324 170.436 202.932C170.222 202.531 169.923 202.223 169.54 202.008C169.167 201.793 168.742 201.686 168.266 201.686C167.79 201.686 167.361 201.793 166.978 202.008C166.605 202.223 166.306 202.531 166.082 202.932C165.868 203.324 165.76 203.777 165.76 204.29C165.76 204.803 165.868 205.261 166.082 205.662C166.306 206.054 166.605 206.362 166.978 206.586C167.361 206.801 167.79 206.908 168.266 206.908ZM181.091 200.58V208H179.817V206.88C179.547 207.263 179.187 207.561 178.739 207.776C178.301 207.981 177.82 208.084 177.297 208.084C176.308 208.084 175.529 207.813 174.959 207.272C174.39 206.721 174.105 205.914 174.105 204.85V200.58H175.449V204.696C175.449 205.415 175.622 205.961 175.967 206.334C176.313 206.698 176.807 206.88 177.451 206.88C178.161 206.88 178.721 206.665 179.131 206.236C179.542 205.807 179.747 205.2 179.747 204.416V200.58H181.091ZM191.982 207.566C191.786 207.734 191.543 207.865 191.254 207.958C190.964 208.042 190.666 208.084 190.358 208.084C189.611 208.084 189.032 207.883 188.622 207.482C188.211 207.081 188.006 206.507 188.006 205.76V201.686H186.746V200.58H188.006V198.956H189.35V200.58H191.478V201.686H189.35V205.704C189.35 206.105 189.448 206.413 189.644 206.628C189.849 206.843 190.138 206.95 190.512 206.95C190.922 206.95 191.272 206.833 191.562 206.6L191.982 207.566ZM197.768 200.51C198.711 200.51 199.458 200.785 200.008 201.336C200.568 201.877 200.848 202.675 200.848 203.73V208H199.504V203.884C199.504 203.165 199.332 202.624 198.986 202.26C198.641 201.896 198.146 201.714 197.502 201.714C196.774 201.714 196.2 201.929 195.78 202.358C195.36 202.778 195.15 203.385 195.15 204.178V208H193.806V197.612H195.15V201.63C195.43 201.275 195.794 201 196.242 200.804C196.7 200.608 197.208 200.51 197.768 200.51ZM210.283 204.332C210.283 204.435 210.273 204.57 210.255 204.738H204.235C204.319 205.391 204.603 205.919 205.089 206.32C205.583 206.712 206.195 206.908 206.923 206.908C207.809 206.908 208.523 206.609 209.065 206.012L209.807 206.88C209.471 207.272 209.051 207.571 208.547 207.776C208.052 207.981 207.497 208.084 206.881 208.084C206.097 208.084 205.401 207.925 204.795 207.608C204.188 207.281 203.717 206.829 203.381 206.25C203.054 205.671 202.891 205.018 202.891 204.29C202.891 203.571 203.049 202.923 203.367 202.344C203.693 201.765 204.137 201.317 204.697 201C205.266 200.673 205.905 200.51 206.615 200.51C207.324 200.51 207.954 200.673 208.505 201C209.065 201.317 209.499 201.765 209.807 202.344C210.124 202.923 210.283 203.585 210.283 204.332ZM206.615 201.644C205.971 201.644 205.429 201.84 204.991 202.232C204.561 202.624 204.309 203.137 204.235 203.772H208.995C208.92 203.147 208.663 202.638 208.225 202.246C207.795 201.845 207.259 201.644 206.615 201.644ZM213.637 201.826C213.87 201.397 214.216 201.07 214.673 200.846C215.13 200.622 215.686 200.51 216.339 200.51V201.812C216.264 201.803 216.162 201.798 216.031 201.798C215.303 201.798 214.729 202.017 214.309 202.456C213.898 202.885 213.693 203.501 213.693 204.304V208H212.349V200.58H213.637V201.826ZM224.833 204.332C224.833 204.435 224.824 204.57 224.805 204.738H218.785C218.869 205.391 219.154 205.919 219.639 206.32C220.134 206.712 220.745 206.908 221.473 206.908C222.36 206.908 223.074 206.609 223.615 206.012L224.357 206.88C224.021 207.272 223.601 207.571 223.097 207.776C222.602 207.981 222.047 208.084 221.431 208.084C220.647 208.084 219.952 207.925 219.345 207.608C218.738 207.281 218.267 206.829 217.931 206.25C217.604 205.671 217.441 205.018 217.441 204.29C217.441 203.571 217.6 202.923 217.917 202.344C218.244 201.765 218.687 201.317 219.247 201C219.816 200.673 220.456 200.51 221.165 200.51C221.874 200.51 222.504 200.673 223.055 201C223.615 201.317 224.049 201.765 224.357 202.344C224.674 202.923 224.833 203.585 224.833 204.332ZM221.165 201.644C220.521 201.644 219.98 201.84 219.541 202.232C219.112 202.624 218.86 203.137 218.785 203.772H223.545C223.47 203.147 223.214 202.638 222.775 202.246C222.346 201.845 221.809 201.644 221.165 201.644ZM227.221 208.084C226.96 208.084 226.736 207.995 226.549 207.818C226.363 207.631 226.269 207.398 226.269 207.118C226.269 206.847 226.363 206.623 226.549 206.446C226.736 206.259 226.96 206.166 227.221 206.166C227.483 206.166 227.702 206.255 227.879 206.432C228.057 206.609 228.145 206.838 228.145 207.118C228.145 207.398 228.052 207.631 227.865 207.818C227.688 207.995 227.473 208.084 227.221 208.084Z" fill="#737373"/>
</g>
<defs>
<filter id="filter0_d_964_18510" x="0" y="0" width="366" height="280" filterUnits="userSpaceOnUse" color-interpolation-filters="sRGB">
<feFlood flood-opacity="0" result="BackgroundImageFix"/>
<feColorMatrix in="SourceAlpha" type="matrix" values="0 0 0 0 0 0 0 0 0 0 0 0 0 0 0 0 0 0 127 0" result="hardAlpha"/>
<feOffset dy="13"/>
<feGaussianBlur stdDeviation="9.5"/>
<feColorMatrix type="matrix" values="0 0 0 0 0 0 0 0 0 0 0 0 0 0 0 0 0 0 0.07 0"/>
<feBlend mode="normal" in2="BackgroundImageFix" result="effect1_dropShadow_964_18510"/>
<feBlend mode="normal" in="SourceGraphic" in2="effect1_dropShadow_964_18510" result="shape"/>
</filter>
<clipPath id="clip0_964_18510">
<rect width="48" height="48" fill="white" transform="translate(59 41)"/>
</clipPath>
<clipPath id="clip1_964_18510">
<rect width="48" height="47.4146" fill="white" transform="translate(59 41)"/>
</clipPath>
</defs>
</svg>
