<svg width="366" height="248" viewBox="0 0 366 248" fill="none" xmlns="http://www.w3.org/2000/svg">
<g filter="url(#filter0_d_964_18517)">
<rect width="328" height="242" transform="translate(19 6)" fill="#0D5C63"/>
<g clip-path="url(#clip0_964_18517)">
<path d="M88.1416 54.624H100.139V58.0693H88.1416V54.624Z" fill="white"/>
<path d="M88.1416 63.2373H100.139V66.6826H88.1416V63.2373Z" fill="white"/>
<path d="M88.1416 71.8506H100.139V75.2959H88.1416V71.8506Z" fill="white"/>
<path d="M103.567 46.0112H62.4319C61.523 46.0121 60.6516 46.3754 60.0089 47.0213C59.3663 47.6673 59.0048 48.5431 59.0039 49.4565V80.4644C59.0048 81.3779 59.3663 82.2537 60.0089 82.8996C60.6516 83.5455 61.523 83.9088 62.4319 83.9097H103.567C104.476 83.9084 105.347 83.5449 105.99 82.8991C106.632 82.2533 106.994 81.3777 106.995 80.4644V49.4565C106.994 48.5431 106.633 47.6673 105.99 47.0213C105.348 46.3754 104.476 46.0121 103.567 46.0112ZM62.4319 49.4565H81.2856V80.4644H62.4319V49.4565ZM84.7136 80.4644V49.4565H103.567L103.571 80.4644H84.7136Z" fill="white"/>
</g>
<path d="M64.88 110.32V114.76H72.656V117.88H64.88V124H60.992V107.2H73.688V110.32H64.88ZM75.9218 111.088H79.6658V124H75.9218V111.088ZM77.7938 109.288C77.1058 109.288 76.5458 109.088 76.1138 108.688C75.6818 108.288 75.4658 107.792 75.4658 107.2C75.4658 106.608 75.6818 106.112 76.1138 105.712C76.5458 105.312 77.1058 105.112 77.7938 105.112C78.4818 105.112 79.0418 105.304 79.4738 105.688C79.9058 106.072 80.1218 106.552 80.1218 107.128C80.1218 107.752 79.9058 108.272 79.4738 108.688C79.0418 109.088 78.4818 109.288 77.7938 109.288ZM91.0885 110.896C92.6885 110.896 93.9765 111.376 94.9525 112.336C95.9445 113.296 96.4405 114.72 96.4405 116.608V124H92.6965V117.184C92.6965 116.16 92.4725 115.4 92.0245 114.904C91.5765 114.392 90.9285 114.136 90.0805 114.136C89.1365 114.136 88.3845 114.432 87.8245 115.024C87.2645 115.6 86.9845 116.464 86.9845 117.616V124H83.2405V111.088H86.8165V112.6C87.3125 112.056 87.9285 111.64 88.6645 111.352C89.4005 111.048 90.2085 110.896 91.0885 110.896ZM105.142 110.896C107.142 110.896 108.678 111.376 109.75 112.336C110.822 113.28 111.358 114.712 111.358 116.632V124H107.854V122.392C107.15 123.592 105.838 124.192 103.918 124.192C102.926 124.192 102.062 124.024 101.326 123.688C100.606 123.352 100.054 122.888 99.6702 122.296C99.2862 121.704 99.0942 121.032 99.0942 120.28C99.0942 119.08 99.5422 118.136 100.438 117.448C101.35 116.76 102.75 116.416 104.638 116.416H107.614C107.614 115.6 107.366 114.976 106.87 114.544C106.374 114.096 105.63 113.872 104.638 113.872C103.95 113.872 103.27 113.984 102.598 114.208C101.942 114.416 101.382 114.704 100.918 115.072L99.5742 112.456C100.278 111.96 101.118 111.576 102.094 111.304C103.086 111.032 104.102 110.896 105.142 110.896ZM104.854 121.672C105.494 121.672 106.062 121.528 106.558 121.24C107.054 120.936 107.406 120.496 107.614 119.92V118.6H105.046C103.51 118.6 102.742 119.104 102.742 120.112C102.742 120.592 102.926 120.976 103.294 121.264C103.678 121.536 104.198 121.672 104.854 121.672ZM122.695 110.896C124.295 110.896 125.583 111.376 126.559 112.336C127.551 113.296 128.047 114.72 128.047 116.608V124H124.303V117.184C124.303 116.16 124.079 115.4 123.631 114.904C123.183 114.392 122.535 114.136 121.687 114.136C120.743 114.136 119.991 114.432 119.431 115.024C118.871 115.6 118.591 116.464 118.591 117.616V124H114.847V111.088H118.423V112.6C118.919 112.056 119.535 111.64 120.271 111.352C121.007 111.048 121.815 110.896 122.695 110.896ZM137.921 124.192C136.545 124.192 135.305 123.912 134.201 123.352C133.113 122.776 132.257 121.984 131.633 120.976C131.025 119.968 130.721 118.824 130.721 117.544C130.721 116.264 131.025 115.12 131.633 114.112C132.257 113.104 133.113 112.32 134.201 111.76C135.305 111.184 136.545 110.896 137.921 110.896C139.281 110.896 140.465 111.184 141.473 111.76C142.497 112.32 143.241 113.128 143.705 114.184L140.801 115.744C140.129 114.56 139.161 113.968 137.897 113.968C136.921 113.968 136.113 114.288 135.473 114.928C134.833 115.568 134.513 116.44 134.513 117.544C134.513 118.648 134.833 119.52 135.473 120.16C136.113 120.8 136.921 121.12 137.897 121.12C139.177 121.12 140.145 120.528 140.801 119.344L143.705 120.928C143.241 121.952 142.497 122.752 141.473 123.328C140.465 123.904 139.281 124.192 137.921 124.192ZM145.961 111.088H149.705V124H145.961V111.088ZM147.833 109.288C147.145 109.288 146.585 109.088 146.153 108.688C145.721 108.288 145.505 107.792 145.505 107.2C145.505 106.608 145.721 106.112 146.153 105.712C146.585 105.312 147.145 105.112 147.833 105.112C148.521 105.112 149.081 105.304 149.513 105.688C149.945 106.072 150.161 106.552 150.161 107.128C150.161 107.752 149.945 108.272 149.513 108.688C149.081 109.088 148.521 109.288 147.833 109.288ZM158.488 110.896C160.488 110.896 162.024 111.376 163.096 112.336C164.168 113.28 164.704 114.712 164.704 116.632V124H161.2V122.392C160.496 123.592 159.184 124.192 157.264 124.192C156.272 124.192 155.408 124.024 154.672 123.688C153.952 123.352 153.4 122.888 153.016 122.296C152.632 121.704 152.44 121.032 152.44 120.28C152.44 119.08 152.888 118.136 153.784 117.448C154.696 116.76 156.096 116.416 157.984 116.416H160.96C160.96 115.6 160.712 114.976 160.216 114.544C159.72 114.096 158.976 113.872 157.984 113.872C157.296 113.872 156.616 113.984 155.944 114.208C155.288 114.416 154.728 114.704 154.264 115.072L152.92 112.456C153.624 111.96 154.464 111.576 155.44 111.304C156.432 111.032 157.448 110.896 158.488 110.896ZM158.2 121.672C158.84 121.672 159.408 121.528 159.904 121.24C160.4 120.936 160.752 120.496 160.96 119.92V118.6H158.392C156.856 118.6 156.088 119.104 156.088 120.112C156.088 120.592 156.272 120.976 156.64 121.264C157.024 121.536 157.544 121.672 158.2 121.672ZM168.192 106.192H171.936V124H168.192V106.192ZM188.192 124.288C186.864 124.288 185.576 124.112 184.328 123.76C183.096 123.392 182.104 122.92 181.352 122.344L182.672 119.416C183.392 119.944 184.248 120.368 185.24 120.688C186.232 121.008 187.224 121.168 188.216 121.168C189.32 121.168 190.136 121.008 190.664 120.688C191.192 120.352 191.456 119.912 191.456 119.368C191.456 118.968 191.296 118.64 190.976 118.384C190.672 118.112 190.272 117.896 189.776 117.736C189.296 117.576 188.64 117.4 187.808 117.208C186.528 116.904 185.48 116.6 184.664 116.296C183.848 115.992 183.144 115.504 182.552 114.832C181.976 114.16 181.688 113.264 181.688 112.144C181.688 111.168 181.952 110.288 182.48 109.504C183.008 108.704 183.8 108.072 184.856 107.608C185.928 107.144 187.232 106.912 188.768 106.912C189.84 106.912 190.888 107.04 191.912 107.296C192.936 107.552 193.832 107.92 194.6 108.4L193.4 111.352C191.848 110.472 190.296 110.032 188.744 110.032C187.656 110.032 186.848 110.208 186.32 110.56C185.808 110.912 185.552 111.376 185.552 111.952C185.552 112.528 185.848 112.96 186.44 113.248C187.048 113.52 187.968 113.792 189.2 114.064C190.48 114.368 191.528 114.672 192.344 114.976C193.16 115.28 193.856 115.76 194.432 116.416C195.024 117.072 195.32 117.96 195.32 119.08C195.32 120.04 195.048 120.92 194.504 121.72C193.976 122.504 193.176 123.128 192.104 123.592C191.032 124.056 189.728 124.288 188.192 124.288ZM210.46 117.592C210.46 117.64 210.436 117.976 210.388 118.6H200.62C200.796 119.4 201.212 120.032 201.868 120.496C202.524 120.96 203.34 121.192 204.316 121.192C204.988 121.192 205.58 121.096 206.092 120.904C206.62 120.696 207.108 120.376 207.556 119.944L209.548 122.104C208.332 123.496 206.556 124.192 204.22 124.192C202.764 124.192 201.476 123.912 200.356 123.352C199.236 122.776 198.372 121.984 197.764 120.976C197.156 119.968 196.852 118.824 196.852 117.544C196.852 116.28 197.148 115.144 197.74 114.136C198.348 113.112 199.172 112.32 200.212 111.76C201.268 111.184 202.444 110.896 203.74 110.896C205.004 110.896 206.148 111.168 207.172 111.712C208.196 112.256 208.996 113.04 209.572 114.064C210.164 115.072 210.46 116.248 210.46 117.592ZM203.764 113.728C202.916 113.728 202.204 113.968 201.628 114.448C201.052 114.928 200.7 115.584 200.572 116.416H206.932C206.804 115.6 206.452 114.952 205.876 114.472C205.3 113.976 204.596 113.728 203.764 113.728ZM216.629 112.792C217.077 112.168 217.677 111.696 218.429 111.376C219.197 111.056 220.077 110.896 221.069 110.896V114.352C220.653 114.32 220.373 114.304 220.229 114.304C219.157 114.304 218.317 114.608 217.709 115.216C217.101 115.808 216.797 116.704 216.797 117.904V124H213.053V111.088H216.629V112.792ZM236.657 111.088L231.209 124H227.345L221.921 111.088H225.785L229.361 119.872L233.057 111.088H236.657ZM238.284 111.088H242.028V124H238.284V111.088ZM240.156 109.288C239.468 109.288 238.908 109.088 238.476 108.688C238.044 108.288 237.828 107.792 237.828 107.2C237.828 106.608 238.044 106.112 238.476 105.712C238.908 105.312 239.468 105.112 240.156 105.112C240.844 105.112 241.404 105.304 241.836 105.688C242.268 106.072 242.484 106.552 242.484 107.128C242.484 107.752 242.268 108.272 241.836 108.688C241.404 109.088 240.844 109.288 240.156 109.288ZM251.843 124.192C250.467 124.192 249.227 123.912 248.123 123.352C247.035 122.776 246.179 121.984 245.555 120.976C244.947 119.968 244.643 118.824 244.643 117.544C244.643 116.264 244.947 115.12 245.555 114.112C246.179 113.104 247.035 112.32 248.123 111.76C249.227 111.184 250.467 110.896 251.843 110.896C253.203 110.896 254.387 111.184 255.395 111.76C256.419 112.32 257.163 113.128 257.627 114.184L254.723 115.744C254.051 114.56 253.083 113.968 251.819 113.968C250.843 113.968 250.035 114.288 249.395 114.928C248.755 115.568 248.435 116.44 248.435 117.544C248.435 118.648 248.755 119.52 249.395 120.16C250.035 120.8 250.843 121.12 251.819 121.12C253.099 121.12 254.067 120.528 254.723 119.344L257.627 120.928C257.163 121.952 256.419 122.752 255.395 123.328C254.387 123.904 253.203 124.192 251.843 124.192ZM272.367 117.592C272.367 117.64 272.343 117.976 272.295 118.6H262.527C262.703 119.4 263.119 120.032 263.775 120.496C264.431 120.96 265.247 121.192 266.223 121.192C266.895 121.192 267.487 121.096 267.999 120.904C268.527 120.696 269.015 120.376 269.463 119.944L271.455 122.104C270.239 123.496 268.463 124.192 266.127 124.192C264.671 124.192 263.383 123.912 262.263 123.352C261.143 122.776 260.279 121.984 259.671 120.976C259.063 119.968 258.759 118.824 258.759 117.544C258.759 116.28 259.055 115.144 259.647 114.136C260.255 113.112 261.079 112.32 262.119 111.76C263.175 111.184 264.351 110.896 265.647 110.896C266.911 110.896 268.055 111.168 269.079 111.712C270.103 112.256 270.903 113.04 271.479 114.064C272.071 115.072 272.367 116.248 272.367 117.592ZM265.671 113.728C264.823 113.728 264.111 113.968 263.535 114.448C262.959 114.928 262.607 115.584 262.479 116.416H268.839C268.711 115.6 268.359 114.952 267.783 114.472C267.207 113.976 266.503 113.728 265.671 113.728ZM279.303 124.192C278.231 124.192 277.183 124.064 276.159 123.808C275.135 123.536 274.319 123.2 273.711 122.8L274.959 120.112C275.535 120.48 276.231 120.784 277.047 121.024C277.863 121.248 278.663 121.36 279.447 121.36C281.031 121.36 281.823 120.968 281.823 120.184C281.823 119.816 281.607 119.552 281.175 119.392C280.743 119.232 280.079 119.096 279.183 118.984C278.127 118.824 277.255 118.64 276.567 118.432C275.879 118.224 275.279 117.856 274.767 117.328C274.271 116.8 274.023 116.048 274.023 115.072C274.023 114.256 274.255 113.536 274.719 112.912C275.199 112.272 275.887 111.776 276.783 111.424C277.695 111.072 278.767 110.896 279.999 110.896C280.911 110.896 281.815 111 282.711 111.208C283.623 111.4 284.375 111.672 284.967 112.024L283.719 114.688C282.583 114.048 281.343 113.728 279.999 113.728C279.199 113.728 278.599 113.84 278.199 114.064C277.799 114.288 277.599 114.576 277.599 114.928C277.599 115.328 277.815 115.608 278.247 115.768C278.679 115.928 279.367 116.08 280.311 116.224C281.367 116.4 282.231 116.592 282.903 116.8C283.575 116.992 284.159 117.352 284.655 117.88C285.151 118.408 285.399 119.144 285.399 120.088C285.399 120.888 285.159 121.6 284.679 122.224C284.199 122.848 283.495 123.336 282.567 123.688C281.655 124.024 280.567 124.192 279.303 124.192ZM69.032 156.288C67.32 156.288 65.768 155.92 64.376 155.184C63 154.432 61.912 153.4 61.112 152.088C60.328 150.76 59.936 149.264 59.936 147.6C59.936 145.936 60.328 144.448 61.112 143.136C61.912 141.808 63 140.776 64.376 140.04C65.768 139.288 67.328 138.912 69.056 138.912C70.512 138.912 71.824 139.168 72.992 139.68C74.176 140.192 75.168 140.928 75.968 141.888L73.472 144.192C72.336 142.88 70.928 142.224 69.248 142.224C68.208 142.224 67.28 142.456 66.464 142.92C65.648 143.368 65.008 144 64.544 144.816C64.096 145.632 63.872 146.56 63.872 147.6C63.872 148.64 64.096 149.568 64.544 150.384C65.008 151.2 65.648 151.84 66.464 152.304C67.28 152.752 68.208 152.976 69.248 152.976C70.928 152.976 72.336 152.312 73.472 150.984L75.968 153.288C75.168 154.264 74.176 155.008 72.992 155.52C71.808 156.032 70.488 156.288 69.032 156.288ZM84.1283 156.192C82.7683 156.192 81.5443 155.912 80.4563 155.352C79.3843 154.776 78.5443 153.984 77.9363 152.976C77.3283 151.968 77.0243 150.824 77.0243 149.544C77.0243 148.264 77.3283 147.12 77.9363 146.112C78.5443 145.104 79.3843 144.32 80.4563 143.76C81.5443 143.184 82.7683 142.896 84.1283 142.896C85.4883 142.896 86.7043 143.184 87.7763 143.76C88.8483 144.32 89.6883 145.104 90.2963 146.112C90.9043 147.12 91.2083 148.264 91.2083 149.544C91.2083 150.824 90.9043 151.968 90.2963 152.976C89.6883 153.984 88.8483 154.776 87.7763 155.352C86.7043 155.912 85.4883 156.192 84.1283 156.192ZM84.1283 153.12C85.0883 153.12 85.8723 152.8 86.4803 152.16C87.1043 151.504 87.4163 150.632 87.4163 149.544C87.4163 148.456 87.1043 147.592 86.4803 146.952C85.8723 146.296 85.0883 145.968 84.1283 145.968C83.1683 145.968 82.3763 146.296 81.7523 146.952C81.1283 147.592 80.8163 148.456 80.8163 149.544C80.8163 150.632 81.1283 151.504 81.7523 152.16C82.3763 152.8 83.1683 153.12 84.1283 153.12ZM101.659 142.896C103.259 142.896 104.547 143.376 105.523 144.336C106.515 145.296 107.011 146.72 107.011 148.608V156H103.267V149.184C103.267 148.16 103.043 147.4 102.595 146.904C102.147 146.392 101.499 146.136 100.651 146.136C99.7068 146.136 98.9548 146.432 98.3948 147.024C97.8348 147.6 97.5548 148.464 97.5548 149.616V156H93.8108V143.088H97.3868V144.6C97.8828 144.056 98.4988 143.64 99.2348 143.352C99.9708 143.048 100.779 142.896 101.659 142.896ZM114.849 156.192C113.777 156.192 112.729 156.064 111.705 155.808C110.681 155.536 109.865 155.2 109.257 154.8L110.505 152.112C111.081 152.48 111.777 152.784 112.593 153.024C113.409 153.248 114.209 153.36 114.993 153.36C116.577 153.36 117.369 152.968 117.369 152.184C117.369 151.816 117.153 151.552 116.721 151.392C116.289 151.232 115.625 151.096 114.729 150.984C113.673 150.824 112.801 150.64 112.113 150.432C111.425 150.224 110.825 149.856 110.313 149.328C109.817 148.8 109.569 148.048 109.569 147.072C109.569 146.256 109.801 145.536 110.265 144.912C110.745 144.272 111.433 143.776 112.329 143.424C113.241 143.072 114.313 142.896 115.545 142.896C116.457 142.896 117.361 143 118.257 143.208C119.169 143.4 119.921 143.672 120.513 144.024L119.265 146.688C118.129 146.048 116.889 145.728 115.545 145.728C114.745 145.728 114.145 145.84 113.745 146.064C113.345 146.288 113.145 146.576 113.145 146.928C113.145 147.328 113.361 147.608 113.793 147.768C114.225 147.928 114.913 148.08 115.857 148.224C116.913 148.4 117.777 148.592 118.449 148.8C119.121 148.992 119.705 149.352 120.201 149.88C120.697 150.408 120.945 151.144 120.945 152.088C120.945 152.888 120.705 153.6 120.225 154.224C119.745 154.848 119.041 155.336 118.113 155.688C117.201 156.024 116.113 156.192 114.849 156.192ZM136.363 143.088V156H132.811V154.464C132.315 155.024 131.723 155.456 131.035 155.76C130.347 156.048 129.603 156.192 128.803 156.192C127.107 156.192 125.763 155.704 124.771 154.728C123.779 153.752 123.283 152.304 123.283 150.384V143.088H127.027V149.832C127.027 151.912 127.899 152.952 129.643 152.952C130.539 152.952 131.259 152.664 131.803 152.088C132.347 151.496 132.619 150.624 132.619 149.472V143.088H136.363ZM139.931 138.192H143.675V156H139.931V138.192ZM156.515 155.376C156.147 155.648 155.691 155.856 155.147 156C154.619 156.128 154.059 156.192 153.467 156.192C151.931 156.192 150.739 155.8 149.891 155.016C149.059 154.232 148.643 153.08 148.643 151.56V146.256H146.651V143.376H148.643V140.232H152.387V143.376H155.603V146.256H152.387V151.512C152.387 152.056 152.523 152.48 152.795 152.784C153.083 153.072 153.483 153.216 153.995 153.216C154.587 153.216 155.091 153.056 155.507 152.736L156.515 155.376ZM158.717 143.088H162.461V156H158.717V143.088ZM160.589 141.288C159.901 141.288 159.341 141.088 158.909 140.688C158.477 140.288 158.261 139.792 158.261 139.2C158.261 138.608 158.477 138.112 158.909 137.712C159.341 137.312 159.901 137.112 160.589 137.112C161.277 137.112 161.837 137.304 162.269 137.688C162.701 138.072 162.917 138.552 162.917 139.128C162.917 139.752 162.701 140.272 162.269 140.688C161.837 141.088 161.277 141.288 160.589 141.288ZM173.884 142.896C175.484 142.896 176.772 143.376 177.748 144.336C178.74 145.296 179.236 146.72 179.236 148.608V156H175.492V149.184C175.492 148.16 175.268 147.4 174.82 146.904C174.372 146.392 173.724 146.136 172.876 146.136C171.932 146.136 171.18 146.432 170.62 147.024C170.06 147.6 169.78 148.464 169.78 149.616V156H166.036V143.088H169.612V144.6C170.108 144.056 170.724 143.64 171.46 143.352C172.196 143.048 173.004 142.896 173.884 142.896ZM196.19 143.088V153.84C196.19 156.208 195.574 157.968 194.342 159.12C193.11 160.272 191.31 160.848 188.942 160.848C187.694 160.848 186.51 160.696 185.39 160.392C184.27 160.088 183.342 159.648 182.606 159.072L184.094 156.384C184.638 156.832 185.326 157.184 186.158 157.44C186.99 157.712 187.822 157.848 188.654 157.848C189.95 157.848 190.902 157.552 191.51 156.96C192.134 156.384 192.446 155.504 192.446 154.32V153.768C191.47 154.84 190.11 155.376 188.366 155.376C187.182 155.376 186.094 155.12 185.102 154.608C184.126 154.08 183.35 153.344 182.774 152.4C182.198 151.456 181.91 150.368 181.91 149.136C181.91 147.904 182.198 146.816 182.774 145.872C183.35 144.928 184.126 144.2 185.102 143.688C186.094 143.16 187.182 142.896 188.366 142.896C190.238 142.896 191.662 143.512 192.638 144.744V143.088H196.19ZM189.11 152.304C190.102 152.304 190.91 152.016 191.534 151.44C192.174 150.848 192.494 150.08 192.494 149.136C192.494 148.192 192.174 147.432 191.534 146.856C190.91 146.264 190.102 145.968 189.11 145.968C188.118 145.968 187.302 146.264 186.662 146.856C186.022 147.432 185.702 148.192 185.702 149.136C185.702 150.08 186.022 150.848 186.662 151.44C187.302 152.016 188.118 152.304 189.11 152.304Z" fill="white"/>
<path d="M64.446 187.566C64.25 187.734 64.0073 187.865 63.718 187.958C63.4287 188.042 63.13 188.084 62.822 188.084C62.0753 188.084 61.4967 187.883 61.086 187.482C60.6753 187.081 60.47 186.507 60.47 185.76V181.686H59.21V180.58H60.47V178.956H61.814V180.58H63.942V181.686H61.814V185.704C61.814 186.105 61.912 186.413 62.108 186.628C62.3133 186.843 62.6027 186.95 62.976 186.95C63.3867 186.95 63.7367 186.833 64.026 186.6L64.446 187.566ZM70.2329 180.51C71.1755 180.51 71.9222 180.785 72.4729 181.336C73.0329 181.877 73.3129 182.675 73.3129 183.73V188H71.9689V183.884C71.9689 183.165 71.7962 182.624 71.4509 182.26C71.1055 181.896 70.6109 181.714 69.9669 181.714C69.2389 181.714 68.6649 181.929 68.2449 182.358C67.8249 182.778 67.6149 183.385 67.6149 184.178V188H66.2709V177.612H67.6149V181.63C67.8949 181.275 68.2589 181 68.7069 180.804C69.1642 180.608 69.6729 180.51 70.2329 180.51ZM82.7472 184.332C82.7472 184.435 82.7379 184.57 82.7192 184.738H76.6992C76.7832 185.391 77.0679 185.919 77.5532 186.32C78.0479 186.712 78.6592 186.908 79.3872 186.908C80.2739 186.908 80.9879 186.609 81.5292 186.012L82.2712 186.88C81.9352 187.272 81.5152 187.571 81.0112 187.776C80.5165 187.981 79.9612 188.084 79.3452 188.084C78.5612 188.084 77.8659 187.925 77.2592 187.608C76.6525 187.281 76.1812 186.829 75.8452 186.25C75.5185 185.671 75.3552 185.018 75.3552 184.29C75.3552 183.571 75.5139 182.923 75.8312 182.344C76.1579 181.765 76.6012 181.317 77.1612 181C77.7305 180.673 78.3699 180.51 79.0792 180.51C79.7885 180.51 80.4185 180.673 80.9692 181C81.5292 181.317 81.9632 181.765 82.2712 182.344C82.5885 182.923 82.7472 183.585 82.7472 184.332ZM79.0792 181.644C78.4352 181.644 77.8939 181.84 77.4552 182.232C77.0259 182.624 76.7739 183.137 76.6992 183.772H81.4592C81.3845 183.147 81.1279 182.638 80.6892 182.246C80.2599 181.845 79.7232 181.644 79.0792 181.644ZM95.7732 180.58V190.716H94.4292V186.88C94.1212 187.272 93.7432 187.571 93.2952 187.776C92.8566 187.981 92.3712 188.084 91.8392 188.084C91.1206 188.084 90.4766 187.925 89.9072 187.608C89.3379 187.291 88.8899 186.847 88.5632 186.278C88.2459 185.699 88.0872 185.037 88.0872 184.29C88.0872 183.543 88.2459 182.885 88.5632 182.316C88.8899 181.747 89.3379 181.303 89.9072 180.986C90.4766 180.669 91.1206 180.51 91.8392 180.51C92.3899 180.51 92.8939 180.617 93.3512 180.832C93.8086 181.037 94.1866 181.345 94.4852 181.756V180.58H95.7732ZM91.9512 186.908C92.4179 186.908 92.8426 186.801 93.2252 186.586C93.6079 186.362 93.9066 186.054 94.1212 185.662C94.3359 185.261 94.4432 184.803 94.4432 184.29C94.4432 183.777 94.3312 183.324 94.1072 182.932C93.8926 182.54 93.5939 182.237 93.2112 182.022C92.8379 181.798 92.4179 181.686 91.9512 181.686C91.4752 181.686 91.0459 181.793 90.6632 182.008C90.2899 182.223 89.9912 182.531 89.7672 182.932C89.5526 183.324 89.4452 183.777 89.4452 184.29C89.4452 184.803 89.5526 185.261 89.7672 185.662C89.9912 186.054 90.2899 186.362 90.6632 186.586C91.0459 186.801 91.4752 186.908 91.9512 186.908ZM105.432 180.58V188H104.158V186.88C103.888 187.263 103.528 187.561 103.08 187.776C102.642 187.981 102.161 188.084 101.638 188.084C100.649 188.084 99.8695 187.813 99.3002 187.272C98.7309 186.721 98.4462 185.914 98.4462 184.85V180.58H99.7902V184.696C99.7902 185.415 99.9629 185.961 100.308 186.334C100.654 186.698 101.148 186.88 101.792 186.88C102.502 186.88 103.062 186.665 103.472 186.236C103.883 185.807 104.088 185.2 104.088 184.416V180.58H105.432ZM108.191 180.58H109.535V188H108.191V180.58ZM108.863 179.152C108.601 179.152 108.382 179.068 108.205 178.9C108.037 178.732 107.953 178.527 107.953 178.284C107.953 178.041 108.037 177.836 108.205 177.668C108.382 177.491 108.601 177.402 108.863 177.402C109.124 177.402 109.339 177.486 109.507 177.654C109.684 177.813 109.773 178.013 109.773 178.256C109.773 178.508 109.684 178.723 109.507 178.9C109.339 179.068 109.124 179.152 108.863 179.152ZM115.535 188.084C114.779 188.084 114.102 187.921 113.505 187.594C112.917 187.267 112.455 186.819 112.119 186.25C111.783 185.671 111.615 185.018 111.615 184.29C111.615 183.562 111.783 182.913 112.119 182.344C112.455 181.765 112.917 181.317 113.505 181C114.102 180.673 114.779 180.51 115.535 180.51C116.207 180.51 116.804 180.645 117.327 180.916C117.859 181.187 118.27 181.579 118.559 182.092L117.537 182.75C117.304 182.395 117.014 182.129 116.669 181.952C116.324 181.775 115.941 181.686 115.521 181.686C115.036 181.686 114.597 181.793 114.205 182.008C113.822 182.223 113.519 182.531 113.295 182.932C113.08 183.324 112.973 183.777 112.973 184.29C112.973 184.813 113.08 185.275 113.295 185.676C113.519 186.068 113.822 186.371 114.205 186.586C114.597 186.801 115.036 186.908 115.521 186.908C115.941 186.908 116.324 186.819 116.669 186.642C117.014 186.465 117.304 186.199 117.537 185.844L118.559 186.488C118.27 187.001 117.859 187.398 117.327 187.678C116.804 187.949 116.207 188.084 115.535 188.084ZM123.287 184.542L121.747 185.97V188H120.403V177.612H121.747V184.276L125.793 180.58H127.417L124.295 183.646L127.725 188H126.073L123.287 184.542ZM135.906 178.634C135.103 178.634 134.702 179.068 134.702 179.936V180.58H136.858V181.686H134.73V188H133.386V181.686H132.126V180.58H133.386V179.922C133.386 179.185 133.601 178.601 134.03 178.172C134.459 177.743 135.061 177.528 135.836 177.528C136.135 177.528 136.415 177.565 136.676 177.64C136.937 177.715 137.161 177.822 137.348 177.962L136.942 178.984C136.634 178.751 136.289 178.634 135.906 178.634ZM141.394 188.084C140.657 188.084 139.994 187.921 139.406 187.594C138.818 187.267 138.356 186.819 138.02 186.25C137.694 185.671 137.53 185.018 137.53 184.29C137.53 183.562 137.694 182.913 138.02 182.344C138.356 181.765 138.818 181.317 139.406 181C139.994 180.673 140.657 180.51 141.394 180.51C142.132 180.51 142.79 180.673 143.368 181C143.956 181.317 144.414 181.765 144.74 182.344C145.076 182.913 145.244 183.562 145.244 184.29C145.244 185.018 145.076 185.671 144.74 186.25C144.414 186.819 143.956 187.267 143.368 187.594C142.79 187.921 142.132 188.084 141.394 188.084ZM141.394 186.908C141.87 186.908 142.295 186.801 142.668 186.586C143.051 186.362 143.35 186.054 143.564 185.662C143.779 185.261 143.886 184.803 143.886 184.29C143.886 183.777 143.779 183.324 143.564 182.932C143.35 182.531 143.051 182.223 142.668 182.008C142.295 181.793 141.87 181.686 141.394 181.686C140.918 181.686 140.489 181.793 140.106 182.008C139.733 182.223 139.434 182.531 139.21 182.932C138.996 183.324 138.888 183.777 138.888 184.29C138.888 184.803 138.996 185.261 139.21 185.662C139.434 186.054 139.733 186.362 140.106 186.586C140.489 186.801 140.918 186.908 141.394 186.908ZM151.789 188L149.647 185.158L147.477 188H145.979L148.905 184.206L146.119 180.58H147.617L149.661 183.254L151.691 180.58H153.161L150.361 184.206L153.315 188H151.789ZM157.989 190.8C157.663 190.8 157.359 190.763 157.079 190.688C156.799 190.613 156.566 190.501 156.379 190.352L156.813 189.316C157.093 189.549 157.457 189.666 157.905 189.666C158.26 189.666 158.531 189.554 158.717 189.33C158.913 189.115 159.011 188.793 159.011 188.364V180.58H160.355V188.336C160.355 189.101 160.15 189.703 159.739 190.142C159.329 190.581 158.745 190.8 157.989 190.8ZM159.683 179.152C159.422 179.152 159.203 179.068 159.025 178.9C158.857 178.732 158.773 178.527 158.773 178.284C158.773 178.041 158.857 177.836 159.025 177.668C159.203 177.491 159.422 177.402 159.683 177.402C159.945 177.402 160.159 177.486 160.327 177.654C160.505 177.813 160.593 178.013 160.593 178.256C160.593 178.508 160.505 178.723 160.327 178.9C160.159 179.068 159.945 179.152 159.683 179.152ZM170.036 180.58V188H168.762V186.88C168.491 187.263 168.132 187.561 167.684 187.776C167.245 187.981 166.764 188.084 166.242 188.084C165.252 188.084 164.473 187.813 163.904 187.272C163.334 186.721 163.05 185.914 163.05 184.85V180.58H164.394V184.696C164.394 185.415 164.566 185.961 164.912 186.334C165.257 186.698 165.752 186.88 166.396 186.88C167.105 186.88 167.665 186.665 168.076 186.236C168.486 185.807 168.692 185.2 168.692 184.416V180.58H170.036ZM182.076 180.51C183.01 180.51 183.747 180.781 184.288 181.322C184.839 181.863 185.114 182.666 185.114 183.73V188H183.77V183.884C183.77 183.165 183.602 182.624 183.266 182.26C182.94 181.896 182.468 181.714 181.852 181.714C181.171 181.714 180.63 181.929 180.228 182.358C179.827 182.778 179.626 183.385 179.626 184.178V188H178.282V183.884C178.282 183.165 178.114 182.624 177.778 182.26C177.452 181.896 176.98 181.714 176.364 181.714C175.683 181.714 175.142 181.929 174.74 182.358C174.339 182.778 174.138 183.385 174.138 184.178V188H172.794V180.58H174.082V181.686C174.353 181.303 174.708 181.014 175.146 180.818C175.585 180.613 176.084 180.51 176.644 180.51C177.223 180.51 177.736 180.627 178.184 180.86C178.632 181.093 178.978 181.434 179.22 181.882C179.5 181.453 179.888 181.117 180.382 180.874C180.886 180.631 181.451 180.51 182.076 180.51ZM191.721 180.51C192.44 180.51 193.084 180.669 193.653 180.986C194.223 181.303 194.666 181.747 194.983 182.316C195.31 182.885 195.473 183.543 195.473 184.29C195.473 185.037 195.31 185.699 194.983 186.278C194.666 186.847 194.223 187.291 193.653 187.608C193.084 187.925 192.44 188.084 191.721 188.084C191.189 188.084 190.699 187.981 190.251 187.776C189.813 187.571 189.439 187.272 189.131 186.88V190.716H187.787V180.58H189.075V181.756C189.374 181.345 189.752 181.037 190.209 180.832C190.667 180.617 191.171 180.51 191.721 180.51ZM191.609 186.908C192.085 186.908 192.51 186.801 192.883 186.586C193.266 186.362 193.565 186.054 193.779 185.662C194.003 185.261 194.115 184.803 194.115 184.29C194.115 183.777 194.003 183.324 193.779 182.932C193.565 182.531 193.266 182.223 192.883 182.008C192.51 181.793 192.085 181.686 191.609 181.686C191.143 181.686 190.718 181.798 190.335 182.022C189.962 182.237 189.663 182.54 189.439 182.932C189.225 183.324 189.117 183.777 189.117 184.29C189.117 184.803 189.225 185.261 189.439 185.662C189.654 186.054 189.953 186.362 190.335 186.586C190.718 186.801 191.143 186.908 191.609 186.908ZM199.658 188.084C199.052 188.084 198.468 188.005 197.908 187.846C197.348 187.678 196.91 187.468 196.592 187.216L197.152 186.152C197.479 186.385 197.876 186.572 198.342 186.712C198.809 186.852 199.28 186.922 199.756 186.922C200.932 186.922 201.52 186.586 201.52 185.914C201.52 185.69 201.441 185.513 201.282 185.382C201.124 185.251 200.923 185.158 200.68 185.102C200.447 185.037 200.111 184.967 199.672 184.892C199.075 184.799 198.585 184.691 198.202 184.57C197.829 184.449 197.507 184.243 197.236 183.954C196.966 183.665 196.83 183.259 196.83 182.736C196.83 182.064 197.11 181.527 197.67 181.126C198.23 180.715 198.982 180.51 199.924 180.51C200.419 180.51 200.914 180.571 201.408 180.692C201.903 180.813 202.309 180.977 202.626 181.182L202.052 182.246C201.446 181.854 200.732 181.658 199.91 181.658C199.341 181.658 198.907 181.751 198.608 181.938C198.31 182.125 198.16 182.372 198.16 182.68C198.16 182.923 198.244 183.114 198.412 183.254C198.58 183.394 198.786 183.497 199.028 183.562C199.28 183.627 199.63 183.702 200.078 183.786C200.676 183.889 201.156 184.001 201.52 184.122C201.894 184.234 202.211 184.43 202.472 184.71C202.734 184.99 202.864 185.382 202.864 185.886C202.864 186.558 202.575 187.095 201.996 187.496C201.427 187.888 200.648 188.084 199.658 188.084ZM211.882 188.084C211.144 188.084 210.482 187.921 209.894 187.594C209.306 187.267 208.844 186.819 208.508 186.25C208.181 185.671 208.018 185.018 208.018 184.29C208.018 183.562 208.181 182.913 208.508 182.344C208.844 181.765 209.306 181.317 209.894 181C210.482 180.673 211.144 180.51 211.882 180.51C212.619 180.51 213.277 180.673 213.856 181C214.444 181.317 214.901 181.765 215.228 182.344C215.564 182.913 215.732 183.562 215.732 184.29C215.732 185.018 215.564 185.671 215.228 186.25C214.901 186.819 214.444 187.267 213.856 187.594C213.277 187.921 212.619 188.084 211.882 188.084ZM211.882 186.908C212.358 186.908 212.782 186.801 213.156 186.586C213.538 186.362 213.837 186.054 214.052 185.662C214.266 185.261 214.374 184.803 214.374 184.29C214.374 183.777 214.266 183.324 214.052 182.932C213.837 182.531 213.538 182.223 213.156 182.008C212.782 181.793 212.358 181.686 211.882 181.686C211.406 181.686 210.976 181.793 210.594 182.008C210.22 182.223 209.922 182.531 209.698 182.932C209.483 183.324 209.376 183.777 209.376 184.29C209.376 184.803 209.483 185.261 209.698 185.662C209.922 186.054 210.22 186.362 210.594 186.586C210.976 186.801 211.406 186.908 211.882 186.908ZM224.151 180.58L220.903 188H219.531L216.283 180.58H217.683L220.231 186.53L222.835 180.58H224.151ZM232.107 184.332C232.107 184.435 232.097 184.57 232.079 184.738H226.059C226.143 185.391 226.427 185.919 226.913 186.32C227.407 186.712 228.019 186.908 228.747 186.908C229.633 186.908 230.347 186.609 230.889 186.012L231.631 186.88C231.295 187.272 230.875 187.571 230.371 187.776C229.876 187.981 229.321 188.084 228.705 188.084C227.921 188.084 227.225 187.925 226.619 187.608C226.012 187.281 225.541 186.829 225.205 186.25C224.878 185.671 224.715 185.018 224.715 184.29C224.715 183.571 224.873 182.923 225.191 182.344C225.517 181.765 225.961 181.317 226.521 181C227.09 180.673 227.729 180.51 228.439 180.51C229.148 180.51 229.778 180.673 230.329 181C230.889 181.317 231.323 181.765 231.631 182.344C231.948 182.923 232.107 183.585 232.107 184.332ZM228.439 181.644C227.795 181.644 227.253 181.84 226.815 182.232C226.385 182.624 226.133 183.137 226.059 183.772H230.819C230.744 183.147 230.487 182.638 230.049 182.246C229.619 181.845 229.083 181.644 228.439 181.644ZM235.461 181.826C235.694 181.397 236.04 181.07 236.497 180.846C236.954 180.622 237.51 180.51 238.163 180.51V181.812C238.088 181.803 237.986 181.798 237.855 181.798C237.127 181.798 236.553 182.017 236.133 182.456C235.722 182.885 235.517 183.501 235.517 184.304V188H234.173V180.58H235.461V181.826ZM248.247 187.566C248.051 187.734 247.808 187.865 247.519 187.958C247.229 188.042 246.931 188.084 246.623 188.084C245.876 188.084 245.297 187.883 244.887 187.482C244.476 187.081 244.271 186.507 244.271 185.76V181.686H243.011V180.58H244.271V178.956H245.615V180.58H247.743V181.686H245.615V185.704C245.615 186.105 245.713 186.413 245.909 186.628C246.114 186.843 246.403 186.95 246.777 186.95C247.187 186.95 247.537 186.833 247.827 186.6L248.247 187.566ZM254.034 180.51C254.976 180.51 255.723 180.785 256.274 181.336C256.834 181.877 257.114 182.675 257.114 183.73V188H255.77V183.884C255.77 183.165 255.597 182.624 255.252 182.26C254.906 181.896 254.412 181.714 253.768 181.714C253.04 181.714 252.466 181.929 252.046 182.358C251.626 182.778 251.416 183.385 251.416 184.178V188H250.072V177.612H251.416V181.63C251.696 181.275 252.06 181 252.508 180.804C252.965 180.608 253.474 180.51 254.034 180.51ZM266.548 184.332C266.548 184.435 266.539 184.57 266.52 184.738H260.5C260.584 185.391 260.869 185.919 261.354 186.32C261.849 186.712 262.46 186.908 263.188 186.908C264.075 186.908 264.789 186.609 265.33 186.012L266.072 186.88C265.736 187.272 265.316 187.571 264.812 187.776C264.317 187.981 263.762 188.084 263.146 188.084C262.362 188.084 261.667 187.925 261.06 187.608C260.453 187.281 259.982 186.829 259.646 186.25C259.319 185.671 259.156 185.018 259.156 184.29C259.156 183.571 259.315 182.923 259.632 182.344C259.959 181.765 260.402 181.317 260.962 181C261.531 180.673 262.171 180.51 262.88 180.51C263.589 180.51 264.219 180.673 264.77 181C265.33 181.317 265.764 181.765 266.072 182.344C266.389 182.923 266.548 183.585 266.548 184.332ZM262.88 181.644C262.236 181.644 261.695 181.84 261.256 182.232C260.827 182.624 260.575 183.137 260.5 183.772H265.26C265.185 183.147 264.929 182.638 264.49 182.246C264.061 181.845 263.524 181.644 262.88 181.644ZM60.274 197.612H61.618V208H60.274V197.612ZM67.0862 200.51C68.1128 200.51 68.8968 200.762 69.4382 201.266C69.9888 201.77 70.2642 202.521 70.2642 203.52V208H68.9902V207.02C68.7662 207.365 68.4442 207.631 68.0242 207.818C67.6135 207.995 67.1235 208.084 66.5542 208.084C65.7235 208.084 65.0562 207.883 64.5522 207.482C64.0575 207.081 63.8102 206.553 63.8102 205.9C63.8102 205.247 64.0482 204.724 64.5242 204.332C65.0002 203.931 65.7562 203.73 66.7922 203.73H68.9202V203.464C68.9202 202.885 68.7522 202.442 68.4162 202.134C68.0802 201.826 67.5855 201.672 66.9322 201.672C66.4935 201.672 66.0642 201.747 65.6442 201.896C65.2242 202.036 64.8695 202.227 64.5802 202.47L64.0202 201.462C64.4028 201.154 64.8602 200.921 65.3922 200.762C65.9242 200.594 66.4888 200.51 67.0862 200.51ZM66.7782 207.048C67.2915 207.048 67.7348 206.936 68.1082 206.712C68.4815 206.479 68.7522 206.152 68.9202 205.732V204.696H66.8482C65.7095 204.696 65.1402 205.079 65.1402 205.844C65.1402 206.217 65.2848 206.511 65.5742 206.726C65.8635 206.941 66.2648 207.048 66.7782 207.048ZM78.4533 206.894V208H72.2373V207.132L76.6193 201.686H72.3213V200.58H78.3413V201.462L73.9593 206.894H78.4533ZM86.8814 200.58L83.2834 208.742C82.9661 209.498 82.5927 210.03 82.1634 210.338C81.7434 210.646 81.2347 210.8 80.6374 210.8C80.2734 210.8 79.9187 210.739 79.5734 210.618C79.2374 210.506 78.9574 210.338 78.7334 210.114L79.3074 209.106C79.6901 209.47 80.1334 209.652 80.6374 209.652C80.9641 209.652 81.2347 209.563 81.4494 209.386C81.6734 209.218 81.8741 208.924 82.0514 208.504L82.2894 207.986L79.0134 200.58H80.4134L83.0034 206.516L85.5654 200.58H86.8814ZM99.2955 197.612V208H98.0075V206.824C97.7088 207.235 97.3308 207.547 96.8735 207.762C96.4162 207.977 95.9122 208.084 95.3615 208.084C94.6428 208.084 93.9988 207.925 93.4295 207.608C92.8602 207.291 92.4122 206.847 92.0855 206.278C91.7682 205.699 91.6095 205.037 91.6095 204.29C91.6095 203.543 91.7682 202.885 92.0855 202.316C92.4122 201.747 92.8602 201.303 93.4295 200.986C93.9988 200.669 94.6428 200.51 95.3615 200.51C95.8935 200.51 96.3835 200.613 96.8315 200.818C97.2795 201.014 97.6528 201.308 97.9515 201.7V197.612H99.2955ZM95.4735 206.908C95.9402 206.908 96.3648 206.801 96.7475 206.586C97.1302 206.362 97.4288 206.054 97.6435 205.662C97.8582 205.261 97.9655 204.803 97.9655 204.29C97.9655 203.777 97.8582 203.324 97.6435 202.932C97.4288 202.531 97.1302 202.223 96.7475 202.008C96.3648 201.793 95.9402 201.686 95.4735 201.686C94.9975 201.686 94.5682 201.793 94.1855 202.008C93.8122 202.223 93.5135 202.531 93.2895 202.932C93.0748 203.324 92.9675 203.777 92.9675 204.29C92.9675 204.803 93.0748 205.261 93.2895 205.662C93.5135 206.054 93.8122 206.362 94.1855 206.586C94.5682 206.801 94.9975 206.908 95.4735 206.908ZM105.216 208.084C104.479 208.084 103.816 207.921 103.228 207.594C102.64 207.267 102.178 206.819 101.842 206.25C101.516 205.671 101.352 205.018 101.352 204.29C101.352 203.562 101.516 202.913 101.842 202.344C102.178 201.765 102.64 201.317 103.228 201C103.816 200.673 104.479 200.51 105.216 200.51C105.954 200.51 106.612 200.673 107.19 201C107.778 201.317 108.236 201.765 108.562 202.344C108.898 202.913 109.066 203.562 109.066 204.29C109.066 205.018 108.898 205.671 108.562 206.25C108.236 206.819 107.778 207.267 107.19 207.594C106.612 207.921 105.954 208.084 105.216 208.084ZM105.216 206.908C105.692 206.908 106.117 206.801 106.49 206.586C106.873 206.362 107.172 206.054 107.386 205.662C107.601 205.261 107.708 204.803 107.708 204.29C107.708 203.777 107.601 203.324 107.386 202.932C107.172 202.531 106.873 202.223 106.49 202.008C106.117 201.793 105.692 201.686 105.216 201.686C104.74 201.686 104.311 201.793 103.928 202.008C103.555 202.223 103.256 202.531 103.032 202.932C102.818 203.324 102.71 203.777 102.71 204.29C102.71 204.803 102.818 205.261 103.032 205.662C103.256 206.054 103.555 206.362 103.928 206.586C104.311 206.801 104.74 206.908 105.216 206.908ZM118.223 200.58V206.992C118.223 208.289 117.901 209.246 117.257 209.862C116.613 210.487 115.652 210.8 114.373 210.8C113.673 210.8 113.006 210.702 112.371 210.506C111.737 210.319 111.223 210.049 110.831 209.694L111.475 208.658C111.821 208.957 112.245 209.19 112.749 209.358C113.263 209.535 113.79 209.624 114.331 209.624C115.199 209.624 115.839 209.419 116.249 209.008C116.669 208.597 116.879 207.972 116.879 207.132V206.544C116.562 206.927 116.17 207.216 115.703 207.412C115.246 207.599 114.747 207.692 114.205 207.692C113.496 207.692 112.852 207.543 112.273 207.244C111.704 206.936 111.256 206.511 110.929 205.97C110.603 205.419 110.439 204.794 110.439 204.094C110.439 203.394 110.603 202.773 110.929 202.232C111.256 201.681 111.704 201.257 112.273 200.958C112.852 200.659 113.496 200.51 114.205 200.51C114.765 200.51 115.283 200.613 115.759 200.818C116.245 201.023 116.641 201.327 116.949 201.728V200.58H118.223ZM114.359 206.516C114.845 206.516 115.279 206.413 115.661 206.208C116.053 206.003 116.357 205.718 116.571 205.354C116.795 204.981 116.907 204.561 116.907 204.094C116.907 203.375 116.669 202.797 116.193 202.358C115.717 201.91 115.106 201.686 114.359 201.686C113.603 201.686 112.987 201.91 112.511 202.358C112.035 202.797 111.797 203.375 111.797 204.094C111.797 204.561 111.905 204.981 112.119 205.354C112.343 205.718 112.647 206.003 113.029 206.208C113.421 206.413 113.865 206.516 114.359 206.516Z" fill="white"/>
</g>
<defs>
<filter id="filter0_d_964_18517" x="0" y="0" width="366" height="280" filterUnits="userSpaceOnUse" color-interpolation-filters="sRGB">
<feFlood flood-opacity="0" result="BackgroundImageFix"/>
<feColorMatrix in="SourceAlpha" type="matrix" values="0 0 0 0 0 0 0 0 0 0 0 0 0 0 0 0 0 0 127 0" result="hardAlpha"/>
<feOffset dy="13"/>
<feGaussianBlur stdDeviation="9.5"/>
<feColorMatrix type="matrix" values="0 0 0 0 0 0 0 0 0 0 0 0 0 0 0 0 0 0 0.07 0"/>
<feBlend mode="normal" in2="BackgroundImageFix" result="effect1_dropShadow_964_18517"/>
<feBlend mode="normal" in="SourceGraphic" in2="effect1_dropShadow_964_18517" result="shape"/>
</filter>
<clipPath id="clip0_964_18517">
<rect width="48" height="37.92" fill="white" transform="translate(59 46)"/>
</clipPath>
</defs>
</svg>
